<?xml version="1.0" encoding="utf-8"?>
<!-- Generator: Adobe Illustrator 26.2.1, SVG Export Plug-In . SVG Version: 6.00 Build 0)  -->
<svg version="1.1" id="Layer_1" xmlns="http://www.w3.org/2000/svg" xmlns:xlink="http://www.w3.org/1999/xlink" x="0px" y="0px"
	 viewBox="0 0 58.8 62.5" style="enable-background:new 0 0 58.8 62.5;" xml:space="preserve">
<style type="text/css">
	.st0{fill-rule:evenodd;clip-rule:evenodd;fill:#007CC3;}
	.st1{fill-rule:evenodd;clip-rule:evenodd;fill:#3F5FA5;}
	.st2{fill:none;stroke:#000000;stroke-width:0.25;stroke-miterlimit:2.61;}
	.st3{fill-rule:evenodd;clip-rule:evenodd;fill:#05603D;}
	.st4{fill-rule:evenodd;clip-rule:evenodd;fill:#966A4B;stroke:#000000;stroke-width:0.44;stroke-miterlimit:2.61;}
	.st5{fill:none;stroke:#000000;stroke-width:0.31;stroke-miterlimit:2.61;}
	.st6{fill-rule:evenodd;clip-rule:evenodd;fill:#FFFFFF;stroke:#000000;stroke-width:0.25;stroke-miterlimit:2.61;}
	.st7{fill-rule:evenodd;clip-rule:evenodd;fill:#FFFFFF;}
	.st8{fill:none;stroke:#000000;stroke-width:0.19;stroke-miterlimit:2.61;}
	.st9{fill-rule:evenodd;clip-rule:evenodd;stroke:#000000;stroke-width:0.19;stroke-miterlimit:2.61;}
	.st10{fill-rule:evenodd;clip-rule:evenodd;fill:#59412D;stroke:#000000;stroke-width:0.44;stroke-miterlimit:2.61;}
	.st11{fill-rule:evenodd;clip-rule:evenodd;fill:#FFFFFF;stroke:#000000;stroke-width:0.44;stroke-miterlimit:2.61;}
	.st12{fill:none;stroke:#000000;stroke-width:0.44;stroke-miterlimit:2.61;}
	.st13{fill-rule:evenodd;clip-rule:evenodd;fill:#FFF500;stroke:#FFF500;stroke-width:0.19;stroke-miterlimit:2.61;}
	.st14{fill:none;stroke:#FFF500;stroke-width:1.31;stroke-miterlimit:2.61;}
	.st15{fill-rule:evenodd;clip-rule:evenodd;fill:#84746D;stroke:#000000;stroke-width:0.44;stroke-miterlimit:2.61;}
	.st16{fill-rule:evenodd;clip-rule:evenodd;stroke:#000000;stroke-width:0.44;stroke-miterlimit:2.61;}
	.st17{fill-rule:evenodd;clip-rule:evenodd;fill:#D1945F;stroke:#000000;stroke-width:0.44;stroke-miterlimit:2.61;}
	.st18{fill-rule:evenodd;clip-rule:evenodd;fill:#05603D;stroke:#000000;stroke-width:0.1;stroke-miterlimit:2.61;}
	.st19{fill:none;stroke:#000000;stroke-width:0.1;stroke-miterlimit:2.61;}
	.st20{fill-rule:evenodd;clip-rule:evenodd;fill:#498677;stroke:#000000;stroke-width:0.1;stroke-miterlimit:2.61;}
	.st21{fill-rule:evenodd;clip-rule:evenodd;fill:#055F3C;stroke:#000000;stroke-width:0.1;stroke-miterlimit:2.61;}
	.st22{fill-rule:evenodd;clip-rule:evenodd;fill:#FFF500;stroke:#000000;stroke-width:0.25;stroke-miterlimit:2.61;}
	.st23{fill-rule:evenodd;clip-rule:evenodd;fill:#FFEC00;stroke:#000000;stroke-width:0.25;stroke-miterlimit:2.61;}
	.st24{fill-rule:evenodd;clip-rule:evenodd;}
</style>
<path id="path6" class="st0" d="M51.5,35.4c-0.3-3.2-1.8-6.6-2.9-9c-1.3-2.9-2-4.9-2.4-6c-0.4-1.2,0-2.5,0.9-3.4
	c-7.4-0.6-8.1-6.9-8.1-6.9c-6.2,2.4-8.5-1.2-8.9-1.7c-0.3-0.5-0.5-1.1-0.6-1.6c0,0.6-0.3,1.2-0.6,1.6c-0.4,0.6-2.6,4.2-8.9,1.7
	c0,0-0.7,6.3-8.1,6.9c0.9,0.8,1.3,2.2,0.9,3.4c-0.2,1.2-1.1,3-2.4,6c-1.1,2.5-2.6,5.9-2.9,9.1L51.5,35.4L51.5,35.4z"/>
<path id="path8" class="st1" d="M10.4,43.6c-0.4,0-1,0.1-2,0.1c-1-2.2-1.4-4.5-1.4-6.9c0-0.5,0-1.1,0.1-1.6h44.4
	c0.1,0.5,0.1,1.1,0.1,1.6c0,0.3,0,0.6-0.1,0.8c0,0.7-1.4-0.3-2,0.1c-0.1,0.1,0,0.3,0.1,0.4c0,0.1,0,0.1,0.1,0.1
	c0.1,0.1,0.1,0.3,0.1,0.4c0.1,0.2,0.4,0.4,0.6,0.6c-0.1,0-0.1,0-0.1,0.1c-0.3,0.1-0.6-0.1-0.9,0.1c-0.5,0.3-1.1,0.1-1.7,0.1h0.1
	c-0.6-0.1-1.2,0-1.8,0.1c-0.4,0.2-0.7,0.3-1.1,0.5c0.1,0.2,0.2,0.4,0.1,0.6c0.1,0,0.1,0.2,0.3,0.2c0.4,0.1,0.7,0,1.1,0.1
	c0.1,0,0.1,0.2,0.1,0.2l0.6,0.3c0.1,0.1,0.4,0,0.6,0.1s0.2,0.1,0.3,0.2c-0.2-0.1-0.3,0.1-0.5,0.2c-0.5,0.1-0.9-0.2-1.4-0.1
	c-0.9,0-1.8-0.1-2.7-0.1l0.1-0.1c-0.8,0-1.6,0-2.4,0.1C40.8,42,40.6,42,40.4,42c-0.4-0.4-0.9-0.2-1.4-0.3c-0.3,0.4-0.8,0.6-1.3,0.5
	c-0.1,0-0.3,0-0.4,0.1c-0.3,0.1-0.1,0.3,0.1,0.4v0.1c-0.5,0.1-1,0.4-1.5,0.2s-0.8,0.4-1.1,0c-0.1-0.1,0-0.5-0.3-0.5
	s-0.5-0.1-0.8-0.1s-0.6,0.1-0.8,0s-0.4-0.1-0.5-0.1s-0.4-0.1-0.5,0.1s0.1,0.4,0.1,0.4c-0.8,0.1-1.6,0.2-2.3,0.1h0.1
	c-0.3-0.1-0.6-0.1-0.8-0.3c-0.4-0.1-0.7-0.1-1.1-0.1c-0.1,0-0.1,0.1-0.3,0.2C27.4,43,27,43,26.7,43.1c-0.1,0.1-0.3,0.1-0.4,0.1
	c-0.5,0.1-1.1,0.1-1.6,0c0,0.1,0,0.1-0.1,0.1c-0.3,0-0.5,0.2-0.8,0.1c-0.6-0.3-1.3-0.1-1.8,0.3c-0.3,0.2-0.6,0.2-0.9,0.1
	c-0.9,0-1.9-0.1-2.7-0.3v-0.1c0.1,0.1,0.3-0.1,0.4-0.1v-0.1c-0.5-0.1-1-0.2-1.5-0.1c-0.1,0-0.1,0.2-0.3,0.3h0.1
	c-0.4,0-0.8,0.1-1.3,0.1c-0.8,0.1-1.7,0-2.5-0.1c-0.1,0,0-0.1,0-0.2s0.4,0,0.5-0.1s0.2-0.4,0-0.4s-0.6,0.1-0.8,0.1
	c-0.4,0.1-0.8,0-1.1-0.1c-0.1,0,0,0.1-0.1,0.1s-0.2,0.4-0.5,0.5C10.5,43.6,10.4,43.5,10.4,43.6L10.4,43.6z"/>
<path id="path10" class="st2" d="M10.4,43.6c-0.4,0-1,0.1-2,0.1c-1-2.2-1.4-4.5-1.4-6.9c0-0.5,0-1.1,0.1-1.6h44.4
	c0.1,0.5,0.1,1.1,0.1,1.6c0,0.3,0,0.6-0.1,0.8c0,0.7-1.4-0.3-2,0.1c-0.1,0.1,0,0.3,0.1,0.4c0,0.1,0,0.1,0.1,0.1
	c0.1,0.1,0.1,0.3,0.1,0.4c0.1,0.2,0.4,0.4,0.6,0.6c-0.1,0-0.1,0-0.1,0.1c-0.3,0.1-0.6-0.1-0.9,0.1c-0.5,0.3-1.1,0.1-1.7,0.1h0.1
	c-0.6-0.1-1.2,0-1.8,0.1c-0.4,0.2-0.7,0.3-1.1,0.5c0.1,0.2,0.2,0.4,0.1,0.6c0.1,0,0.1,0.2,0.3,0.2c0.4,0.1,0.7,0,1.1,0.1
	c0.1,0,0.1,0.2,0.1,0.2l0.6,0.3c0.1,0.1,0.4,0,0.6,0.1s0.2,0.1,0.3,0.2c-0.2-0.1-0.3,0.1-0.5,0.2c-0.5,0.1-0.9-0.2-1.4-0.1
	c-0.9,0-1.8-0.1-2.7-0.1l0.1-0.1c-0.8,0-1.6,0-2.4,0.1C40.8,42,40.6,42,40.4,42c-0.4-0.4-0.9-0.2-1.4-0.3c-0.3,0.4-0.8,0.6-1.3,0.5
	c-0.1,0-0.3,0-0.4,0.1c-0.3,0.1-0.1,0.3,0.1,0.4v0.1c-0.5,0.1-1,0.4-1.5,0.2s-0.8,0.4-1.1,0c-0.1-0.1,0-0.5-0.3-0.5
	s-0.5-0.1-0.8-0.1s-0.6,0.1-0.8,0s-0.4-0.1-0.5-0.1s-0.4-0.1-0.5,0.1s0.1,0.4,0.1,0.4c-0.8,0.1-1.6,0.2-2.3,0.1h0.1
	c-0.3-0.1-0.6-0.1-0.8-0.3c-0.4-0.1-0.7-0.1-1.1-0.1c-0.1,0-0.1,0.1-0.3,0.2C27.4,43,27,43,26.7,43.1c-0.1,0.1-0.3,0.1-0.4,0.1
	c-0.5,0.1-1.1,0.1-1.6,0c0,0.1,0,0.1-0.1,0.1c-0.3,0-0.5,0.2-0.8,0.1c-0.6-0.3-1.3-0.1-1.8,0.3c-0.3,0.2-0.6,0.2-0.9,0.1
	c-0.9,0-1.9-0.1-2.7-0.3v-0.1c0.1,0.1,0.3-0.1,0.4-0.1v-0.1c-0.5-0.1-1-0.2-1.5-0.1c-0.1,0-0.1,0.2-0.3,0.3h0.1
	c-0.4,0-0.8,0.1-1.3,0.1c-0.8,0.1-1.7,0-2.5-0.1c-0.1,0,0-0.1,0-0.2s0.4,0,0.5-0.1s0.2-0.4,0-0.4s-0.6,0.1-0.8,0.1
	c-0.4,0.1-0.8,0-1.1-0.1c-0.1,0,0,0.1-0.1,0.1s-0.2,0.4-0.5,0.5C10.5,43.6,10.4,43.5,10.4,43.6L10.4,43.6z"/>
<path id="path12" class="st3" d="M50.2,43.8c-1.4,3.4-4,6.1-7.4,7.5c-1.3,1-2.9,1.4-4.5,1.2c-1.2,0.7-2.5,1.2-3.8,1.7
	c-2.1,0.6-3.9,1.8-5.3,3.4h-0.1c-1.4-1.6-3.2-2.8-5.3-3.4c-0.9-0.3-3.8-1.7-3.8-1.7c-1.6,0.2-3.2-0.3-4.5-1.2
	c-3.3-1.5-6-4.2-7.4-7.5c1,0,1.6-0.1,2-0.1c0.1,0,0.1,0,0.2-0.1c0.3-0.1,0.3-0.4,0.5-0.5s0-0.1,0.1-0.1c0.4,0,0.7,0.1,1.1,0.1
	s0.6-0.1,0.8-0.1s0.1,0.4,0,0.4s-0.4,0.1-0.5,0.1s-0.1,0.2,0,0.2c0.8,0.1,1.7,0.1,2.5,0.1c0.4,0,0.8-0.1,1.3-0.1H16
	c0.1-0.1,0.1-0.3,0.3-0.3c0.5-0.1,1,0,1.5,0.1v0.1c-0.1,0.1-0.1,0.2-0.4,0.1c-0.1,0-0.1,0.1,0,0.1c0.9,0.2,1.8,0.3,2.7,0.3
	c0.3,0,0.6,0,0.9-0.1c0.5-0.4,1.2-0.6,1.8-0.3c0.3,0.1,0.6,0,0.8-0.1c0-0.1,0-0.1,0.1-0.1c0.5,0.1,1.1,0.1,1.6,0
	c0.1,0,0.3-0.1,0.4-0.1c0.4-0.1,0.7,0,0.9-0.4c0.1-0.1,0.1-0.2,0.3-0.2c0.4-0.1,0.8,0,1.1,0.1c0.3,0.1,0.6,0.1,0.8,0.3h-0.1
	c0.8,0.1,1.6,0,2.3-0.1c0.1,0-0.1-0.3-0.1-0.4s0.4-0.1,0.5-0.1s0.4,0.1,0.5,0.1c0.3,0.1,0.6-0.1,0.8,0c0.3,0.1,0.5,0.1,0.8,0.1
	s0.2,0.4,0.3,0.5c0.2,0.3,0.7-0.1,1.1,0c0.5,0,1,0,1.5-0.2V43c-0.1-0.1-0.4-0.4-0.1-0.4c0.1,0,0.3-0.1,0.4-0.1
	c0.5,0.1,1-0.1,1.3-0.5c0.5,0.1,1-0.1,1.4,0.3c0.1,0.1,0.4-0.1,0.6-0.1c0.8-0.1,1.6-0.2,2.4-0.1c0,0,0,0.1-0.1,0.1
	c0.9,0,1.8,0.1,2.7,0.1c0.4,0,0.9,0.3,1.4,0.1c0.2-0.1,0.3-0.3,0.5-0.2c-0.1-0.1-0.2-0.2-0.3-0.2c-0.1-0.1-0.4-0.1-0.6-0.1
	c-0.2,0-0.5-0.1-0.6-0.3c-0.1,0-0.1-0.2-0.1-0.2c-0.4-0.1-0.7,0-1.1-0.1c-0.1,0-0.1-0.1-0.3-0.2c0.1-0.3-0.1-0.4-0.1-0.6
	c0.4-0.1,0.7-0.4,1.1-0.5c0.6-0.1,1.2,0,1.8-0.1h-0.1c0.6,0.1,1.2,0,1.7-0.1c0.3-0.1,0.6,0.1,0.9-0.1l0.1-0.1
	c-0.3-0.1-0.4-0.4-0.6-0.6c0-0.1,0-0.3-0.1-0.4c0-0.1,0-0.1-0.1-0.1c-0.1-0.1-0.1-0.3-0.1-0.4c0.6-0.4,2,0.6,2-0.1
	c-0.1,1.2-0.2,2.3-0.4,3.5C50.7,42.2,50.5,43.1,50.2,43.8L50.2,43.8z"/>
<path id="path14" class="st2" d="M50.2,43.8c-1.4,3.4-4,6.1-7.4,7.5c-1.3,1-2.9,1.4-4.5,1.2c-1.2,0.7-2.5,1.2-3.8,1.7
	c-2.1,0.6-3.9,1.8-5.3,3.4h-0.1c-1.4-1.6-3.2-2.8-5.3-3.4c-0.9-0.3-3.8-1.7-3.8-1.7c-1.6,0.2-3.2-0.3-4.5-1.2
	c-3.3-1.5-6-4.2-7.4-7.5c1,0,1.6-0.1,2-0.1c0.1,0,0.1,0,0.2-0.1c0.3-0.1,0.3-0.4,0.5-0.5s0-0.1,0.1-0.1c0.4,0,0.7,0.1,1.1,0.1
	s0.6-0.1,0.8-0.1s0.1,0.4,0,0.4s-0.4,0.1-0.5,0.1s-0.1,0.2,0,0.2c0.8,0.1,1.7,0.1,2.5,0.1c0.4,0,0.8-0.1,1.3-0.1H16
	c0.1-0.1,0.1-0.3,0.3-0.3c0.5-0.1,1,0,1.5,0.1v0.1c-0.1,0.1-0.1,0.2-0.4,0.1c-0.1,0-0.1,0.1,0,0.1c0.9,0.2,1.8,0.3,2.7,0.3
	c0.3,0,0.6,0,0.9-0.1c0.5-0.4,1.2-0.6,1.8-0.3c0.3,0.1,0.6,0,0.8-0.1c0-0.1,0-0.1,0.1-0.1c0.5,0.1,1.1,0.1,1.6,0
	c0.1,0,0.3-0.1,0.4-0.1c0.4-0.1,0.7,0,0.9-0.4c0.1-0.1,0.1-0.2,0.3-0.2c0.4-0.1,0.8,0,1.1,0.1c0.3,0.1,0.6,0.1,0.8,0.3h-0.1
	c0.8,0.1,1.6,0,2.3-0.1c0.1,0-0.1-0.3-0.1-0.4s0.4-0.1,0.5-0.1s0.4,0.1,0.5,0.1c0.3,0.1,0.6-0.1,0.8,0c0.3,0.1,0.5,0.1,0.8,0.1
	s0.2,0.4,0.3,0.5c0.2,0.3,0.7-0.1,1.1,0c0.5,0,1,0,1.5-0.2V43c-0.1-0.1-0.4-0.4-0.1-0.4c0.1,0,0.3-0.1,0.4-0.1
	c0.5,0.1,1-0.1,1.3-0.5c0.5,0.1,1-0.1,1.4,0.3c0.1,0.1,0.4-0.1,0.6-0.1c0.8-0.1,1.6-0.2,2.4-0.1c0,0,0,0.1-0.1,0.1
	c0.9,0,1.8,0.1,2.7,0.1c0.4,0,0.9,0.3,1.4,0.1c0.2-0.1,0.3-0.3,0.5-0.2c-0.1-0.1-0.2-0.2-0.3-0.2c-0.1-0.1-0.4-0.1-0.6-0.1
	c-0.2,0-0.5-0.1-0.6-0.3c-0.1,0-0.1-0.2-0.1-0.2c-0.4-0.1-0.7,0-1.1-0.1c-0.1,0-0.1-0.1-0.3-0.2c0.1-0.3-0.1-0.4-0.1-0.6
	c0.4-0.1,0.7-0.4,1.1-0.5c0.6-0.1,1.2,0,1.8-0.1h-0.1c0.6,0.1,1.2,0,1.7-0.1c0.3-0.1,0.6,0.1,0.9-0.1l0.1-0.1
	c-0.3-0.1-0.4-0.4-0.6-0.6c0-0.1,0-0.3-0.1-0.4c0-0.1,0-0.1-0.1-0.1c-0.1-0.1-0.1-0.3-0.1-0.4c0.6-0.4,2,0.6,2-0.1
	c-0.1,1.2-0.2,2.3-0.4,3.5C50.7,42.2,50.5,43.1,50.2,43.8L50.2,43.8z"/>
<path id="path16" class="st4" d="M38.3,20.7c-0.3,2.5-0.5,4.9-0.5,7.4c0.4,5.7,3,18.1,4.8,22.1c0-0.3,0.2-0.6,0.6-0.6
	c0.1,0,0.1,0,0.2,0c0.7,0.1,0.6-0.4,1-0.7s0.6-0.1,0.9-0.3s0.6-0.7,0.6-0.7s-1-1.3-2.6-5.9s-4.5-15.4-3.2-19.7L38.3,20.7z"/>
<path id="path18" class="st5" d="M45.3,47c-0.3-0.2-0.6-0.3-0.9-0.4c-0.2,0.1-0.3,0.4-0.2,0.6c0.1,0.1,0.2,0.3,0.3,0.4
	c-0.1-0.3-0.4-0.5-0.7-0.4l0,0c-0.4,0.1-0.6,1-0.6,1s0.7-1.2-0.1-1.2c-0.6,0-1,0.5-1,1c0,0.1,0,0.2,0.1,0.3 M44.7,45.9
	c0,0-0.5-0.4-0.8-0.3c-0.2,0.1-0.3,0.4-0.2,0.6c0.1,0.2,0.3,0.4,0.4,0.6c0,0-0.3-0.8-0.8-0.6s-0.6,1-0.6,1s0.7-1.2-0.1-1.2
	c-0.6,0-1,0.5-1,1c0,0.1,0,0.2,0,0.3 M44.4,44.9c0,0-0.7-0.4-0.9-0.3s-0.2,0.4-0.2,0.6s0.5,0.7,0.5,0.7s-0.4-0.8-0.8-0.6
	s-0.6,0.9-0.6,0.9S43,45,42.3,45c-0.5,0-0.9,0.4-0.9,0.9c0,0.1,0,0.2,0.1,0.4 M44,44c-0.2-0.2-0.5-0.3-0.8-0.4
	c-0.2,0-0.3,0.4-0.3,0.5c0.1,0.2,0.2,0.4,0.3,0.6c0,0-0.2-0.7-0.7-0.6c-0.3,0.1-0.6,0.8-0.6,0.8s0.7-1,0-1.1
	c-0.5,0.1-0.9,0.6-0.9,1.1l0,0 M43.5,43c0,0-0.4-0.4-0.6-0.3c-0.2,0.1-0.3,0.3-0.3,0.5c0.1,0.2,0.2,0.4,0.3,0.6c0,0-0.2-0.7-0.7-0.6
	c-0.3,0.1-0.6,0.8-0.6,0.8s0.7-1,0-1.1c-0.3-0.1-1,0.2-0.9,1.1 M43.3,42.1c0,0-0.5-0.4-0.7-0.3c-0.2,0.1-0.3,0.2-0.3,0.4
	c0.1,0.2,0.2,0.4,0.3,0.6c0,0-0.1-0.6-0.6-0.5c-0.3,0.1-0.6,0.7-0.6,0.7s0.6-0.9,0-1c-0.4,0-0.8,0.3-0.8,0.7c0,0.1,0,0.1,0,0.2
	 M42.9,41.2c0,0-0.4-0.3-0.6-0.2s-0.3,0.3-0.2,0.4c0.1,0.2,0.2,0.4,0.3,0.6c0,0-0.1-0.6-0.6-0.5c-0.2,0.2-0.4,0.4-0.5,0.6
	c0,0,0.6-0.8-0.1-0.8c-0.4,0-0.8,0.3-0.8,0.7c0,0.1,0,0.1,0,0.2 M42.6,40.4c0,0-0.4-0.4-0.6-0.3c-0.1,0.1-0.2,0.2-0.2,0.4
	c0.1,0.2,0.2,0.4,0.3,0.5c0,0-0.1-0.6-0.6-0.5c-0.3,0.1-0.6,0.7-0.6,0.7s0.7-0.8,0-1c-0.5,0-0.8,0.4-0.8,0.9v0.1 M42.4,39.5
	c0,0-0.5-0.4-0.7-0.3c-0.1,0.1-0.2,0.2-0.2,0.4c0.1,0.2,0.2,0.4,0.3,0.5c0,0-0.1-0.6-0.6-0.5c-0.3,0.1-0.5,0.7-0.5,0.7
	s0.6-0.8,0-0.9c-0.4,0-0.8,0.3-0.8,0.8l0,0 M42.3,38.7c0,0-0.5-0.4-0.7-0.3c-0.1,0.1-0.2,0.3-0.2,0.4c0.1,0.2,0.2,0.4,0.3,0.5
	c0,0-0.1-0.6-0.6-0.5c-0.3,0.1-0.5,0.7-0.5,0.7s0.6-0.8,0-0.9c-0.5,0-0.8,0.4-0.8,0.8v0.1 M42,37.7c0,0-0.5-0.4-0.6-0.3
	c-0.1,0.1-0.2,0.3-0.2,0.4c0,0.2,0.1,0.3,0.2,0.5c0,0-0.1-0.6-0.6-0.5c-0.3,0.1-0.6,0.6-0.6,0.6s0.6-0.8,0-0.8
	c-0.4,0-0.8,0.3-0.8,0.8l0,0 M41.7,36.8c0,0-0.4-0.4-0.6-0.3c-0.1,0.1-0.2,0.3-0.2,0.4c0.1,0.2,0.2,0.3,0.3,0.5c0,0-0.1-0.6-0.6-0.4
	c-0.3,0.1-0.5,0.6-0.5,0.6s0.6-0.8,0-0.8c-0.4,0-0.8,0.3-0.8,0.8c0,0,0,0,0,0.1 M41.6,36c0,0-0.5-0.4-0.6-0.3
	c-0.1,0.1-0.2,0.2-0.2,0.4s0.1,0.3,0.2,0.5c0,0-0.1-0.6-0.5-0.4c-0.2,0.2-0.4,0.4-0.5,0.6c0,0,0.6-0.8,0-0.8
	c-0.3-0.1-0.7,0.2-0.7,0.5c0,0.1,0,0.2,0,0.3 M41.2,35.1c0,0-0.4-0.4-0.6-0.3c-0.1,0.1-0.2,0.2-0.2,0.4c0,0.1,0.1,0.3,0.2,0.4
	c0,0-0.1-0.5-0.5-0.4c-0.2,0.1-0.5,0.6-0.5,0.6s0.6-0.8,0-0.8c-0.4,0-0.7,0.3-0.7,0.6c0,0.1,0,0.1,0,0.2 M41.1,34.3
	c0,0-0.4-0.4-0.6-0.3c-0.1,0.1-0.2,0.2-0.2,0.4c0,0.1,0.1,0.3,0.2,0.4c0,0-0.1-0.5-0.5-0.4c-0.2,0.2-0.4,0.4-0.5,0.6
	c0,0,0.6-0.7,0-0.8c-0.4,0-0.7,0.3-0.7,0.7V35 M40.9,33.5c-0.2-0.1-0.4-0.2-0.6-0.3c-0.1,0.1-0.2,0.3-0.1,0.4c0,0.1,0.1,0.3,0.2,0.4
	c0,0-0.1-0.5-0.5-0.4c-0.2,0.1-0.4,0.6-0.4,0.6s0.5-0.7,0-0.8c-0.2,0-0.7,0.1-0.6,0.8 M40.7,32.8c-0.2-0.1-0.4-0.2-0.6-0.3
	c-0.1,0.1-0.2,0.2-0.1,0.4c0,0.1,0.1,0.3,0.2,0.4c0,0-0.1-0.5-0.5-0.4c-0.2,0.1-0.4,0.6-0.4,0.6s0.5-0.7,0-0.7
	c-0.3,0-0.6,0.2-0.6,0.5c0,0.1,0,0.1,0,0.2 M40.5,32c0,0-0.4-0.4-0.6-0.3s-0.2,0.2-0.1,0.4c0,0.1,0.1,0.3,0.2,0.4
	c0,0-0.1-0.5-0.5-0.4c-0.2,0.1-0.4,0.6-0.4,0.6s0.5-0.7,0-0.8c-0.3,0-0.6,0.2-0.6,0.5c0,0.1,0,0.1,0,0.2 M40.4,31.3
	c-0.2-0.1-0.3-0.2-0.5-0.3c-0.1,0.1-0.2,0.2-0.1,0.4c0,0.1,0.1,0.3,0.2,0.4c0,0-0.1-0.4-0.4-0.4S39.1,32,39.1,32s0.5-0.6,0-0.7
	c-0.3,0-0.6,0.2-0.6,0.5c0,0.1,0,0.1,0,0.2 M40.3,30.5c0,0-0.4-0.3-0.5-0.2s-0.1,0.2-0.1,0.4c0,0.1,0.1,0.3,0.2,0.4
	c0,0-0.1-0.4-0.4-0.4c-0.2,0.1-0.3,0.3-0.4,0.5c0,0,0.5-0.6,0-0.7c-0.3,0-0.6,0.2-0.6,0.5c0,0.1,0,0.1,0,0.2 M40.1,29.9
	c0,0-0.4-0.3-0.5-0.2s-0.1,0.2-0.1,0.4c0,0.1,0.1,0.3,0.1,0.4c0,0-0.1-0.4-0.4-0.4c-0.2,0.1-0.3,0.3-0.4,0.5c0,0,0.5-0.6,0-0.7
	c-0.2,0-0.6,0.1-0.6,0.7 M39.9,29.2c0,0-0.4-0.3-0.5-0.2s-0.1,0.2-0.1,0.4c0,0.1,0.1,0.3,0.2,0.4c0,0-0.1-0.4-0.4-0.4
	c-0.2,0.1-0.3,0.3-0.4,0.5c0,0,0.4-0.6,0-0.7c-0.2,0-0.6,0.1-0.6,0.7 M39.9,28.4c0,0-0.4-0.3-0.5-0.2s-0.1,0.2-0.1,0.4
	c0,0.1,0.1,0.3,0.2,0.4c0,0-0.1-0.5-0.4-0.4c-0.2,0.1-0.3,0.3-0.4,0.5c0,0,0.5-0.6,0-0.7c-0.2,0-0.6,0.1-0.6,0.7 M39.9,27.6
	c0,0-0.4-0.4-0.5-0.3s-0.2,0.1-0.2,0.3c0,0.1,0.1,0.3,0.1,0.4c0,0-0.1-0.5-0.4-0.4c-0.2,0.1-0.3,0.3-0.4,0.5c0,0,0.5-0.6,0.1-0.7
	c-0.3-0.1-0.6,0.1-0.7,0.5c0,0.1,0,0.1,0,0.2 M39.8,26.9c0,0-0.4-0.4-0.5-0.3s-0.2,0.2-0.1,0.3c0,0.1,0.1,0.3,0.1,0.4
	c0,0-0.1-0.5-0.4-0.4c-0.2,0.1-0.3,0.3-0.4,0.5c0,0,0.5-0.6,0.1-0.7c-0.2,0-0.7,0.1-0.6,0.6 M39.7,26.3c0,0-0.4-0.4-0.5-0.3
	s-0.1,0.2-0.1,0.3c0,0.1,0.1,0.3,0.1,0.4c0,0-0.1-0.5-0.4-0.4c-0.1,0.1-0.4,0.5-0.4,0.5s0.5-0.6,0.1-0.7c-0.3,0-0.6,0.2-0.6,0.5v0.1
	 M39.6,25.6c-0.2-0.1-0.3-0.2-0.5-0.3C39,25.4,39,25.4,39,25.6c0,0.1,0.1,0.3,0.1,0.4c0,0-0.1-0.4-0.4-0.4L38.3,26
	c0,0,0.5-0.6,0-0.6c-0.3,0-0.6,0.3-0.6,0.6 M39.6,24.9c0,0-0.4-0.3-0.4-0.2s-0.1,0.1-0.1,0.3c0,0.1,0.1,0.3,0.1,0.4
	c0,0-0.1-0.4-0.4-0.4l-0.4,0.4c0,0,0.5-0.6,0.1-0.6c-0.3,0-0.6,0.3-0.6,0.6 M39.6,24.2c0,0-0.3-0.3-0.4-0.2s-0.1,0.1-0.1,0.3
	c0,0.1,0.1,0.3,0.1,0.4c0,0-0.1-0.4-0.4-0.4l-0.4,0.4c0,0,0.4-0.5,0.1-0.6c-0.3,0-0.6,0.3-0.6,0.6 M39.6,23.5c0,0-0.3-0.3-0.4-0.2
	s-0.1,0.1-0.1,0.3c0,0.1,0.1,0.3,0.1,0.4c0,0-0.1-0.4-0.4-0.4L38.4,24c0,0,0.4-0.5,0-0.6c-0.3,0-0.6,0.3-0.6,0.6 M39.6,22.9
	c0,0-0.3-0.3-0.4-0.2s-0.1,0.1-0.1,0.3c0,0.1,0.1,0.3,0.1,0.4c0,0-0.1-0.4-0.4-0.4l-0.4,0.4c0,0,0.4-0.5,0.1-0.6
	c-0.1,0-0.6,0.1-0.6,0.5 M39.7,22.2c0,0-0.3-0.3-0.4-0.2s-0.1,0.1-0.1,0.3c0,0.1,0.1,0.3,0.1,0.4c0,0-0.1-0.4-0.4-0.4l-0.4,0.4
	c0,0,0.4-0.5,0.1-0.6c-0.1,0-0.6,0.1-0.6,0.5"/>
<path id="path20" class="st6" d="M15.3,19.2l2.7,1.5l-1.5,2.6c0,0-0.6,1.2-1.2,0.8L12.6,23c0.3-0.1,0.6-0.3,0.7-0.6
	C13.6,21.9,15.3,19.1,15.3,19.2L15.3,19.2z"/>
<path id="path22" class="st6" d="M12.7,23.1l2.7,1.1c0,0-0.4-0.2-0.1-0.7c0.1-0.2,0.3-0.4,0.8-0.3l-2.7-1.1c-0.3-0.1-0.5,0-0.7,0.2
	C12.6,22.5,12.4,22.9,12.7,23.1z"/>
<path id="path24" class="st7" d="M19.3,18.9c0,0-0.9-0.5-1.4-0.8s-0.6-0.6-0.4-1s1.1-1,1.3-1.3s0.8-1.1,0.8-1.3
	c0.2,0.2,0.4,0.5,0.4,0.8c-0.1,0.4-0.4,1.1-0.5,1.4s-0.4,0.8-0.1,1.1c0.3,0.4,0.6,0.7,0.8,1.1L19.3,18.9z"/>
<path id="path26" class="st2" d="M19.3,18.9c0,0-0.9-0.5-1.4-0.8s-0.6-0.6-0.4-1s1.1-1,1.3-1.3s0.8-1.1,0.8-1.3
	c0.2,0.2,0.4,0.5,0.4,0.8c-0.1,0.4-0.4,1.1-0.5,1.4s-0.4,0.8-0.1,1.1c0.3,0.4,0.6,0.7,0.8,1.1"/>
<path id="path28" class="st8" d="M19.1,15.6c0,0,0.6-0.8,0.5-1.1 M18.8,16.1c0.4-0.1,0.8-0.4,0.9-0.8 M18.7,16.7
	c0.2,0,0.5,0,0.7-0.1 M18.6,17.2c0,0,0.4,0,0.5-0.2 M18.7,17.7c0,0,0.4-0.1,0.4-0.2 M19,18c0,0,0.4-0.1,0.3-0.3 M19.3,18.2l0.1-0.4"
	/>
<path id="path30" class="st7" d="M19.9,18.8c0,0-0.4-1.6,0.4-2.3c0.8-0.6,1.7-1.1,2.6-1.3c0.6-0.2,1.1-0.4,1.6-0.7
	c-0.6,0.8-1.3,1.6-2,2.3c-0.8,0.6-0.6,1.1-1.1,1.4c-0.3,0.3-0.6,0.5-0.4,0.8L19.9,18.8L19.9,18.8z"/>
<path id="path32" class="st2" d="M19.9,18.8c0,0-0.4-1.6,0.4-2.3c0.8-0.6,1.7-1.1,2.6-1.3c0.6-0.2,1.1-0.4,1.6-0.7
	c-0.6,0.8-1.3,1.6-2,2.3c-0.8,0.6-0.6,1.1-1.1,1.4c-0.3,0.3-0.6,0.5-0.4,0.8"/>
<path id="path34" class="st8" d="M22.3,15.6c0.6-0.1,1.1-0.3,1.6-0.6 M21.9,16.1c0.5-0.1,1-0.2,1.4-0.4 M21.5,16.5
	c0.4,0.1,0.8,0,1.2-0.1 M21.1,16.8c0.3,0.1,0.5,0.1,0.8,0 M20.7,17.3c0,0,0.8,0.1,0.9,0.1 M20.6,17.6c0,0,0.6,0.1,0.8,0.1 M20.5,18
	c0.2,0.1,0.4,0.1,0.6,0"/>
<path id="path36" class="st6" d="M16.7,19.7c0.3-0.1,0.6-0.1,0.9,0c0.4,0.1,1.6,0.8,2.3,0.7c0.5-0.1,0.9-0.2,1.3-0.4
	c0.3-0.1,0.6-0.1,0.9,0.1c0.3,0.4,0.6,0.8,1,1.1c0,0,0.7-1,1.3-1.1c0,0-2-0.9-2.5-1.1s-1.2-0.5-1.7-0.6s-1,0-1.5,0.1
	c-0.4,0.1-0.5,0.4-0.8,0.2c-0.3-0.1-0.6-0.1-0.9,0s-0.3,0.4-0.4,0.4c-0.2,0.1-0.3,0.3-0.4,0.5L16.7,19.7L16.7,19.7z"/>
<path id="path38" class="st9" d="M17.6,19.2C17.8,19.2,17.8,19.1,17.6,19.2c0.1-0.1,0.1-0.1,0-0.1V19.2z"/>
<path id="path40" class="st8" d="M23,19.8c0.4,0.2,0.8,0.4,1.2,0.6 M22.9,20l1.1,0.6 M22.8,20.4l0.8,0.6"/>
<path id="path42" class="st10" d="M31.5,39.8l-2-0.1c-0.4,0-0.8,0-1.1,0.1c-0.5-0.1-1-0.1-1.5,0c-0.6-0.1-1.2-0.1-1.7,0
	c-0.5-0.1-1-0.1-1.5,0c-0.4-0.1-0.7-0.1-1.1,0c-0.4,0-0.8,0-1.1,0.2c-0.6-0.1-1.2-0.2-1.8-0.1c-0.6,0-1.2,0-1.7,0.1
	c-0.4-0.6-0.8-1.1-1.3-1.5c0,0,11.7,0.1,13.9-0.3c1.7-0.2,3.4-0.8,4.9-1.6l-0.2,0.6c0,0-0.1,0.3-0.6,0.2
	C34.5,37.5,31.9,39.2,31.5,39.8L31.5,39.8z"/>
<path id="path44" class="st11" d="M35.3,36.6c-1.6,0.7-3.2,1.2-4.9,1.6c-2.2,0.4-13.9,0.3-13.9,0.3l-0.1-0.3c0,0,6.2,0.1,7.2,0
	c2.4,0,4.7-0.1,7.1-0.4c1.6-0.4,3.2-0.9,4.7-1.5C35.4,36.3,35.3,36.6,35.3,36.6z"/>
<path id="path46" class="st12" d="M20.8,27.2v11 M25.5,26.2V38 M29.5,26.8V38"/>
<path id="path48" class="st11" d="M29.5,26.8v-1.6c-0.1,0.3-0.3,0.4-0.6,0.4c-0.4,0.1-0.8,0.2-1.1,0.4c-0.2,0.2-0.4,0.3-0.6,0.4
	c0.2,0.1,0.4,0.1,0.6,0.1c0.3-0.1,0.5-0.1,0.8-0.1C28.8,26.6,29.2,26.8,29.5,26.8z"/>
<path id="path50" class="st11" d="M28.3,27.3l2.4-0.1c0,0,0.6,1.5,0,2.3c0,0-0.7-0.8-2.5,0.1C28.2,29.5,28.9,27.6,28.3,27.3z"/>
<path id="path52" class="st11" d="M27.9,29.7l3.1-0.1c0,0,1,0.6,0.4,2.7c0,0-1.3-1.1-4,0.1C27.5,32.5,28.6,30.9,27.9,29.7z"/>
<path id="path54" class="st11" d="M27.1,32.6l4.9-0.1c0.6,0.7,1,1.7,1,2.6c-0.1,0.8-0.4,1.6-0.9,2.3l-0.7,0.2
	c-0.5-0.1-0.9-0.1-1.4-0.1c-1.1,0.1-2.1,0.3-3.1,0.6c0.7-0.8,1.2-1.8,1.3-2.8C28.2,34.3,27.8,33.2,27.1,32.6L27.1,32.6z"/>
<path id="path56" class="st11" d="M22.4,32.6l4.9-0.1c0.6,0.7,1,1.7,1,2.6c-0.2,1.1-0.6,2.1-1.3,3l-0.4-0.4
	c-0.5-0.1-0.9-0.1-1.4-0.1c-1.1,0-2.1,0.3-3.1,0.6c0.7-0.8,1.2-1.8,1.3-2.8C23.6,34.3,23.2,33.2,22.4,32.6L22.4,32.6z"/>
<path id="path58" class="st11" d="M24,27.3l2.4-0.1c0,0,0.6,1.5,0,2.3c0,0-0.7-0.8-2.5,0.1C23.9,29.5,24.6,27.6,24,27.3z"/>
<path id="path60" class="st11" d="M23.7,29.7l3.1-0.1c0,0,1,0.6,0.4,2.7c0,0-1.3-1.1-4,0.1C23.2,32.5,24.2,30.9,23.7,29.7L23.7,29.7
	z"/>
<path id="path62" class="st11" d="M25.5,26.9v-1.6c-0.1,0.3-0.3,0.4-0.6,0.4c-0.4,0.1-0.8,0.2-1.1,0.4c-0.2,0.1-0.4,0.2-0.5,0.3
	c0,0,0.4,0.2,0.6,0.1c0.3-0.1,0.5-0.1,0.8-0.1C24.9,26.8,25.1,26.9,25.5,26.9z"/>
<path id="path64" class="st11" d="M17,32.5c0,0,2.5,1.6,1.8,3.4c-0.4,0.9-0.9,1.7-1.5,2.3c-1.3-0.1-2.5-0.3-3.8-0.6
	C13.6,37.5,17.4,34.8,17,32.5z"/>
<path id="path66" class="st11" d="M19.3,29.7c0,0,0.6,2.2-0.5,2.7c-0.6,0.3-1.3,0.3-1.9,0L19.3,29.7z"/>
<path id="path68" class="st11" d="M17.8,32.7l4.9-0.1c0.6,0.7,1,1.7,1,2.6c-0.2,1.1-0.6,2.1-1.2,2.9L22,37.7
	c-0.5-0.1-0.9-0.1-1.4-0.1c-1.1,0.1-2.1,0.3-3.1,0.6c0.7-0.8,1.2-1.7,1.3-2.7C18.8,34.5,18.5,33.4,17.8,32.7L17.8,32.7z"/>
<path id="path70" class="st11" d="M19.4,27.5h2.7c0,0,0.6,1.4-0.1,2.2c0,0-0.8-0.8-2.7,0.1C19.3,29.7,20.1,27.8,19.4,27.5z"/>
<path id="path72" class="st11" d="M19.2,29.8l2.9-0.1c0,0,1.1,0.8,0.1,2.7c0,0-0.8-1.1-3.5,0.1C18.7,32.7,19.9,31,19.2,29.8z"/>
<path id="path74" class="st11" d="M20.8,27.1v-1.6c-0.1,0.3-0.3,0.4-0.6,0.4c-0.4,0.1-0.8,0.2-1.1,0.4c-0.2,0.1-0.4,0.3-0.5,0.4
	c0.2,0.1,0.4,0.1,0.6,0.1c0.3-0.1,0.5-0.1,0.8-0.1C20.3,26.9,20.5,27.1,20.8,27.1z"/>
<path id="path76" class="st12" d="M32.3,37.3L29.5,32c0.9,1.8,1.3,3.8,1.3,5.9 M13.7,37.6c0.9,0.3,1.8,0.5,2.7,0.6
	c0.9,0,8.2,0.1,9.6,0c0.6-0.1,2.6-0.1,4-0.3s7.6-2.2,8.2-2.4c0,0-2,0.8-8.8-8.6c0,0,5.5,7.9,7.4,9.1 M35,36.4l-5-7.1"/>
<path id="path78" class="st13" d="M48.6,35.3c0-1.5-1.2-2.8-2.7-2.8c0,0,0,0-0.1,0c-1.5,0-2.7,1.1-2.7,2.6c0,0.1,0,0.1,0,0.2H48.6z"
	/>
<path id="path80" class="st14" d="M48.6,35h2.3 M48.5,34.5l2.5-0.6 M48.4,34.1l2.4-1.4 M48,33.7l2.1-2.3 M47.6,33.2l2-2.7
	 M47.1,32.9l2-4.3 M48.1,27.8l-1.3,4.9 M46.2,32.6l0.9-5 M45.9,32.4v-5 M45.3,32.5l-0.6-4.8 M45,32.6l-1.1-4.5 M44.5,32.9l-1.7-4.5
	 M44.1,33.1l-2.2-3.5 M43.8,33.5l-2.7-2.6 M43.5,34l-2.7-1.8 M43.3,34.6l-2.1-1.1 M43.1,34.7l-1.8-0.5 M43.2,35.1h-1.6"/>
<path id="path82" class="st15" d="M18.4,40.3c0.3,0,6.4,1,8.8,2.5s5.2,3.5,9.4,3.9c0,0,0,0.5,0.1,0.6c-2.6-0.3-5.2-1.1-7.5-2.3
	c-2.5-1.6-4.5-3.2-10.3-4C18,40.8,18,40.3,18.4,40.3L18.4,40.3z"/>
<polygon id="polygon84" class="st15" points="39.6,49.6 39.6,44.7 39.4,44.7 39.4,49.6 "/>
<polygon id="polygon86" class="st15" points="41.4,48.8 37.8,45.2 37.7,45.4 41.2,49 "/>
<polygon id="polygon88" class="st15" points="42,47 37,47 37,47.2 42,47.2 "/>
<polygon id="polygon90" class="st15" points="41.2,45.2 37.7,48.8 37.8,49 41.4,45.4 "/>
<path id="path92" class="st15" d="M36.6,47.6c0-0.1-0.1-0.3-0.1-0.4c-0.4-2,1-3.9,2.9-4.3s3.9,1,4.3,2.9c0.4,2-1,3.9-2.9,4.3
	C38.9,50.4,37.1,49.3,36.6,47.6h0.6c0.2,1.1,1.2,1.9,2.3,1.8c1.3,0,2.3-1,2.3-2.3s-1-2.3-2.3-2.3s-2.3,1-2.3,2.3l0,0v0.4L36.6,47.6z
	"/>
<path id="path94" class="st15" d="M38.8,47.6c0,0-1.3,0.1-3.8,0.1c-2.1,0.1-4.3-0.4-6.2-1.3c-4.2-2-5.7-3.1-10.2-3.8
	c-0.8-0.1-0.8-0.6-0.4-0.7s4.7,0.4,7.1,1.8c6.4,3.5,10.3,3.5,13.1,3.2c0.5,0,0.4-0.1,0.5-0.3s0.1-0.3,0.5-0.4
	c0.3-0.1,0.7,0.1,0.8,0.4l0,0c0.1,0.3,0,0.6-0.2,0.8C39.6,47.8,39.3,47.7,38.8,47.6z"/>
<path id="path96" class="st16" d="M39.4,46.8c-0.2,0-0.3,0.2-0.3,0.4s0.1,0.3,0.3,0.3s0.4-0.1,0.4-0.3
	C39.8,46.9,39.7,46.8,39.4,46.8z"/>
<path id="path98" class="st11" d="M30.2,49.9c-0.1-0.1-1.4-2.1-1.8-2.8s-0.1-2.3,0.8-1.8s1.6,0.8,1.9,1c1.5,0.5,3,0.8,4.6,0.9
	c-0.2,0.4-0.4,0.9-0.4,1.4c0.1,0.4,0.1,1.1,0.4,1.3L30.2,49.9z"/>
<path id="path100" class="st11" d="M27.4,51.2c0.1,0.1,1.2-0.2,0.9,0.8c-0.1,0.5-0.3,1-0.6,1.5c0,0-2.5,0-2.5-0.4
	c0,0,0.5-2.5,1.5-2.3C27.4,51,27.4,51.2,27.4,51.2z"/>
<path id="path102" class="st17" d="M30.8,44c0.1,0.2,0.1,0.5-0.1,0.7c-0.2,0.6-3.3,7.1-3.3,7.1l-0.5,0.4l0.1-0.5l3.2-7.3
	C30.2,44.4,30.5,43.9,30.8,44z"/>
<path id="path104" class="st18" d="M36.7,10.2c0,0-0.4,1.3,0.4,1.5C37,11.6,37.6,11.1,36.7,10.2z"/>
<path id="path106" class="st18" d="M38.7,17.7c0,0-1.2-1.1-1.3-1.8l1.3,1.3V17.7z"/>
<path id="path108" class="st18" d="M38.7,17c0,0-1.5-1.3-1.5-2l1.6,1.4L38.7,17L38.7,17z"/>
<path id="path110" class="st18" d="M38.8,15.9c0,0-1.7-1.5-1.7-2.3l1.7,1.7V15.9z"/>
<path id="path112" class="st18" d="M38.7,15.1c0,0-1.8-1.3-1.7-2.3l1.6,1.6L38.7,15.1L38.7,15.1z"/>
<path id="path114" class="st18" d="M38.6,14.2c0,0-1.9-0.9-1.8-2l1.6,1.2L38.6,14.2L38.6,14.2z"/>
<path id="path116" class="st18" d="M37.4,11.8c0,0-0.8,0.3-1.1-1l0.9,0.8L37.4,11.8L37.4,11.8z"/>
<path id="path118" class="st18" d="M38.2,13.1c0,0-1.5-0.3-1.8-1.4l1.3,0.7L38.2,13.1z"/>
<path id="path120" class="st18" d="M37.7,12.3c-0.7-0.1-1.4-0.5-1.6-1.2l1.2,0.7L37.7,12.3z"/>
<path id="path122" class="st18" d="M38.7,17.6c0,0,1.3-0.8,1.4-1.4L38.6,17L38.7,17.6L38.7,17.6z"/>
<path id="path124" class="st18" d="M38.8,17c0,0,1.7-1.1,1.8-1.7l-1.8,1.1V17z"/>
<path id="path126" class="st18" d="M38.9,16.3c0,0,2-1.4,1.7-2.1l-1.8,1.5L38.9,16.3z"/>
<path id="path128" class="st18" d="M38.9,15.6c0,0,1.7-1.4,1.4-2.4L38.7,15L38.9,15.6L38.9,15.6z"/>
<path id="path130" class="st18" d="M38.5,14c0,0,1.3-1.1,0.7-1.9l-1.1,1.1L38.5,14L38.5,14z"/>
<path id="path132" class="st18" d="M38.2,13.1c0.5-0.5,0.6-1.2,0.3-1.8l-0.6,1.1L38.2,13.1z"/>
<path id="path134" class="st18" d="M38,12.6c0.4-0.5,0.3-1.2-0.1-1.7L37.5,12L38,12.6L38,12.6z"/>
<path id="path136" class="st18" d="M37.4,11.8c0,0,0.6-1.2-0.3-1.8L37,11.3L37.4,11.8L37.4,11.8z"/>
<path id="path138" class="st19" d="M38.5,18.1c0.8-2.4,0.2-5.1-1.6-6.9"/>
<path id="path140" class="st18" d="M38.7,14.7c0,0,1.6-1.2,1.3-2.3L38.6,14L38.7,14.7L38.7,14.7z"/>
<path id="path142" class="st18" d="M38.9,16.4c0,0-1.7-1.5-1.7-2l1.7,1.4V16.4L38.9,16.4z"/>
<path id="path144" class="st18" d="M47.1,23.4c0,0-1.6,0.1-1.5-0.6C45.7,22.8,46.5,22.2,47.1,23.4z"/>
<path id="path146" class="st18" d="M39.8,19.6c0,0,0.7,1.6,1.5,1.7l-0.7-1.7H39.8z"/>
<path id="path148" class="st18" d="M40.5,19.7c0,0,0.8,1.9,1.6,2l-0.8-2H40.5z"/>
<path id="path150" class="st18" d="M41.8,19.9c0,0,0.8,2.1,1.8,2.3L42.5,20L41.8,19.9L41.8,19.9z"/>
<path id="path152" class="st18" d="M42.6,20.2c0,0,0.6,2.1,1.8,2.3l-0.9-2L42.6,20.2L42.6,20.2z"/>
<path id="path154" class="st18" d="M43.5,20.5c0,0,0.1,2.1,1.4,2.3l-0.6-1.9C44.3,20.9,43.5,20.5,43.5,20.5z"/>
<path id="path156" class="st18" d="M45.7,22.4c0,0-0.7,0.8,0.6,1.3l-0.4-1.1L45.7,22.4z"/>
<path id="path158" class="st18" d="M44.5,21.2c0,0-0.4,1.6,0.7,2.2l-0.1-1.5L44.5,21.2z"/>
<path id="path160" class="st18" d="M45.1,21.9c-0.2,0.7,0,1.5,0.6,1.9l-0.1-1.5L45.1,21.9z"/>
<path id="path162" class="st18" d="M39.9,19.6c0,0,1.5-1.2,2.3-1.1l-1.6,1.3L39.9,19.6z"/>
<path id="path164" class="st18" d="M40.5,19.7c0,0,2-1.5,2.7-1.4l-2,1.6L40.5,19.7L40.5,19.7z"/>
<path id="path166" class="st18" d="M41.3,19.7c0,0,2.4-1.7,3.2-1.3L42,19.9L41.3,19.7L41.3,19.7z"/>
<path id="path168" class="st18" d="M42.1,19.9c0,0,2.4-1.5,3.5-0.9l-2.7,1.2L42.1,19.9z"/>
<path id="path170" class="st18" d="M43.8,20.7c0,0,1.8-1.2,2.4-0.3l-1.8,0.8L43.8,20.7z"/>
<path id="path172" class="st18" d="M44.5,21.2c0,0,1.5-0.8,2.1,0.1L45,21.7L44.5,21.2z"/>
<path id="path174" class="st18" d="M45,21.5c0.7-0.2,1.4-0.1,1.9,0.4l-1.4,0.2L45,21.5z"/>
<path id="path176" class="st18" d="M45.5,22.3c0,0,1.6-0.4,1.8,0.7l-1.6-0.1L45.5,22.3z"/>
<path id="path178" class="st19" d="M39.1,19.7c0,0,4.7-0.7,6.9,3.3"/>
<path id="path180" class="st18" d="M42.9,20.3c0,0,2-1.3,3.2-0.8l-2.4,1.1L42.9,20.3z"/>
<path id="path182" class="st18" d="M41.2,19.7c0,0,0.8,2.1,1.5,2.3l-0.8-2.1L41.2,19.7L41.2,19.7z"/>
<path id="path184" class="st18" d="M45.3,28c0,0-1.6-0.9-1.3-1.8C44,26.2,45,25.6,45.3,28z"/>
<path id="path186" class="st18" d="M44,26.1c-0.4,0.7-0.2,1.5,0.4,1.9c0,0,0.1,0,0.1,0.1l-0.4-1.7L44,26.1L44,26.1z"/>
<path id="path188" class="st18" d="M44,26.1c0.7-0.2,1.5,0.2,1.7,0.9c0,0.1,0,0.2,0,0.2l-1.5-0.8C44.2,26.4,44,26.1,44,26.1z"/>
<path id="path190" class="st18" d="M38.7,19.6c0,0,2,0.1,2.5,0.8L39,20.3L38.7,19.6L38.7,19.6z"/>
<path id="path192" class="st18" d="M39.1,20.1c0,0,2.6,0.3,3.2,0.9l-2.8-0.2L39.1,20.1z"/>
<path id="path194" class="st18" d="M39.6,20.8c0,0,2.6,0.3,3.1,0.9l-2.8-0.2L39.6,20.8z"/>
<path id="path196" class="st18" d="M40.2,21.6c0,0,2.9-0.3,3.4,0.9l-3.1-0.2L40.2,21.6z"/>
<path id="path198" class="st18" d="M40.8,22.3c0,0,2.9-0.3,3.4,0.9l-2.8-0.1L40.8,22.3z"/>
<path id="path200" class="st18" d="M41.4,23.1c0,0,2.9-0.3,3.5,0.9L42,23.9L41.4,23.1L41.4,23.1z"/>
<path id="path202" class="st18" d="M42.1,23.9c0,0,2.6-0.3,3,0.9l-2.3-0.2L42.1,23.9L42.1,23.9z"/>
<path id="path204" class="st18" d="M42.8,24.8c0,0,2-0.3,2.6,0.9l-1.9-0.2C43.5,25.5,42.8,24.8,42.8,24.8z"/>
<path id="path206" class="st18" d="M43.5,25.6c0,0,1.7-0.4,2.3,0.8L44,26.1L43.5,25.6z"/>
<path id="path208" class="st18" d="M38.6,19.7c0,0-0.3,2,0.3,2.6l0.4-2.1L38.6,19.7z"/>
<path id="path210" class="st18" d="M39.1,20.2c0,0-0.3,2.6,0.3,3.2l0.4-2.7L39.1,20.2z"/>
<path id="path212" class="st18" d="M39.6,20.8c0,0-0.3,2.6,0.3,3.2l0.4-2.8L39.6,20.8z"/>
<path id="path214" class="st18" d="M40.3,21.5c0,0-0.9,2.8,0.1,3.5l0.4-3.1L40.3,21.5z"/>
<path id="path216" class="st18" d="M40.9,22.2c0,0-0.9,2.7,0.1,3.5l0.6-2.8L40.9,22.2z"/>
<path id="path218" class="st18" d="M41.6,23c0,0-0.9,2.7,0.1,3.5l0.6-2.7L41.6,23z"/>
<path id="path220" class="st18" d="M42.2,23.8c0,0-0.8,2.4,0.3,3.2l0.3-2.3L42.2,23.8z"/>
<path id="path222" class="st18" d="M42.8,24.6c0,0-0.7,2,0.4,2.7l0.1-1.9L42.8,24.6z"/>
<path id="path224" class="st18" d="M43.5,25.6c0,0-0.7,1.6,0.4,2.3l0.1-1.8L43.5,25.6z"/>
<path id="path226" class="st19" d="M38.3,19.3c2.1,2,3.9,4.3,5.4,6.7"/>
<path id="path228" class="st18" d="M38.6,18.8c0,0,0.7-1.9,0.4-2.6l-0.8,2L38.6,18.8L38.6,18.8z"/>
<path id="path230" class="st18" d="M38.4,18.7c0,0-2,0-2.5-0.6l2.2-0.1C38.1,18,38.4,18.7,38.4,18.7z"/>
<path id="path232" class="st18" d="M33.8,13.7c0,0-2,0.3-2.5-0.9l1.9,0.3L33.8,13.7z"/>
<path id="path234" class="st18" d="M33,12.9c0,0-1.8,0.4-2-0.7l1.8,0.3L33,12.9L33,12.9z"/>
<path id="path236" class="st18" d="M35.6,15.1c0,0-2.9,0.6-3.5-0.6l2.8-0.2L35.6,15.1z"/>
<path id="path238" class="st18" d="M34.9,14.4c0,0-2.5,0.5-3.1-0.6h2.3L34.9,14.4z"/>
<path id="path240" class="st18" d="M38.3,18.2c0,0,0.8-2.6,0.4-3.2l-1,2.6L38.3,18.2L38.3,18.2z"/>
<path id="path242" class="st18" d="M37.9,17.5c0,0,0.8-2.5,0.4-3.2l-1,2.7L37.9,17.5L37.9,17.5z"/>
<path id="path244" class="st18" d="M37.3,16.6c0,0,1.2-2.5,0.1-3.2l-0.7,2.7L37.3,16.6z"/>
<path id="path246" class="st18" d="M36.7,16.1c0,0,1.2-2.5,0.1-3.2L36,15.4L36.7,16.1L36.7,16.1z"/>
<path id="path248" class="st18" d="M36.1,15.4c0,0,0.9-2.6-0.3-3.2l-0.5,2.5L36.1,15.4z"/>
<path id="path250" class="st18" d="M31.2,11.8c0,0,0.9,1.6,1.8,1.3C33.1,13.1,33.7,12.1,31.2,11.8z"/>
<path id="path252" class="st18" d="M33.2,13c0.2-0.7-0.2-1.4-0.9-1.7c-0.1,0-0.2-0.1-0.3-0.1l0.8,1.6C32.8,12.9,33.2,13,33.2,13z"/>
<path id="path254" class="st18" d="M35.3,14.9c0,0,0.7-2.7-0.8-3.1l0.1,2.5C34.6,14.3,35.3,14.9,35.3,14.9z"/>
<path id="path256" class="st18" d="M34.6,14.3c0,0,0.3-2-0.9-2.6l0.3,1.9L34.6,14.3L34.6,14.3z"/>
<path id="path258" class="st18" d="M33.8,13.5c0,0,0.4-1.8-0.8-2.3l0.3,1.8L33.8,13.5z"/>
<path id="path260" class="st18" d="M38.1,18.2c0,0-2.6-0.1-3.2-0.6h2.8L38.1,18.2z"/>
<path id="path262" class="st18" d="M37.5,17.6c0,0-3.1-0.1-3.8-0.8l3.2,0.1L37.5,17.6z"/>
<path id="path264" class="st18" d="M37,16.8c0,0-3.2,0.2-3.8-0.9l3.5,0.2L37,16.8L37,16.8z"/>
<path id="path266" class="st18" d="M36.5,16c0,0-3.2,0.3-3.8-0.9l3.1,0.1L36.5,16z"/>
<path id="path268" class="st19" d="M38.4,18.8c0,0-1.3-3.5-6.8-6.2"/>
<path id="path270" class="st18" d="M47.2,17.1c0,0-1.1,1.3-1.7,0.6C45.6,17.8,45.7,16.6,47.2,17.1z"/>
<path id="path272" class="st18" d="M38.4,19.6c0,0,1.9,0.6,2.6,0.2L39,19L38.4,19.6L38.4,19.6z"/>
<path id="path274" class="st18" d="M38.9,19.3c0,0,2.3,0.8,3,0.4l-2.4-1L38.9,19.3L38.9,19.3z"/>
<path id="path276" class="st18" d="M40,18.4c0,0,2.5,1,3.4,0.5L40.8,18L40,18.4L40,18.4z"/>
<path id="path278" class="st18" d="M40.9,18.1c0,0,2.3,1.2,3.4,0.5l-2.4-0.9L40.9,18.1L40.9,18.1z"/>
<path id="path280" class="st18" d="M41.9,17.7c0,0,2,1.6,3.1,0.8l-2.1-1.1L41.9,17.7L41.9,17.7z"/>
<path id="path282" class="st18" d="M45.2,17.4c0,0,0.2,1.2,1.6,0.6l-1.3-0.6H45.2z"/>
<path id="path284" class="st18" d="M43.3,17.4c0,0,1.1,1.6,2.5,1.1l-1.5-1.1H43.3z"/>
<path id="path286" class="st18" d="M44.4,17.5c0.5,0.7,1.3,1.1,2.1,1l-1.4-0.9L44.4,17.5L44.4,17.5z"/>
<path id="path288" class="st18" d="M38.4,19.6c0,0,0-2,0.6-2.5v2.2C39,19.3,38.4,19.6,38.4,19.6z"/>
<path id="path290" class="st18" d="M38.9,19.2c0,0,0.1-2.6,0.8-3.2l-0.1,2.8C39.6,18.8,38.9,19.2,38.9,19.2z"/>
<path id="path292" class="st18" d="M39.5,18.7c0,0,0.3-3.2,1.2-3.4l-0.5,3L39.5,18.7L39.5,18.7z"/>
<path id="path294" class="st18" d="M40.3,18.2c0,0,0.5-2.9,1.7-3.2l-0.9,3L40.3,18.2L40.3,18.2z"/>
<path id="path296" class="st18" d="M42.3,17.5c0,0,0.3-2.3,1.6-2l-0.5,2H42.3z"/>
<path id="path298" class="st18" d="M43.3,17.4c0,0,0.4-1.7,1.7-1.5l-0.8,1.5H43.3z"/>
<path id="path300" class="st18" d="M44,17.2c0.3-0.7,1.1-1.1,1.8-1.1L45,17.4L44,17.2z"/>
<path id="path302" class="st18" d="M45,17.5c0,0,0.8-1.6,2-0.8l-1.3,1.1L45,17.5L45,17.5z"/>
<path id="path304" class="st19" d="M38,20.3c1.9-2.4,5.1-3.4,8.1-2.5"/>
<path id="path306" class="st18" d="M41.3,17.9c0,0,0.4-2.6,1.6-2.9l-0.8,2.6L41.3,17.9z"/>
<path id="path308" class="st18" d="M39.4,18.8c0,0,2.5,1.1,3.1,0.7l-2.4-1.1L39.4,18.8z"/>
<path id="path310" class="st18" d="M36.3,18.4c0,0-2-3-3.2-2.9l2.3,2.8C35.4,18.3,36.3,18.4,36.3,18.4z"/>
<path id="path312" class="st18" d="M25.6,19.6c0,0,0.8,1.1,2.7-0.1C27.6,18.9,26.4,18.9,25.6,19.6z"/>
<path id="path314" class="st20" d="M38.3,19c0,0-2,1.2-3.1,1.1l2.2-1.3L38.3,19z"/>
<path id="path316" class="st18" d="M37.4,18.9c0,0-2.3,1.6-3.5,1.3l2.5-1.7L37.4,18.9L37.4,18.9z"/>
<path id="path318" class="st18" d="M35.6,18.4c0,0-2.6,1.8-4,1.6l3-1.7L35.6,18.4L35.6,18.4z"/>
<path id="path320" class="st18" d="M34.4,18.4c0,0-2.4,1.9-4,1.6l2.7-1.6H34.4z"/>
<path id="path322" class="st18" d="M33,18.2c0,0-1.8,2.1-3.5,1.7l2.1-1.6C31.6,18.3,33,18.2,33,18.2z"/>
<path id="path324" class="st18" d="M28.8,19c0,0-0.1,1.6-2.1,1.5l1.8-1.3C28.5,19.2,28.8,19,28.8,19z"/>
<path id="path326" class="st18" d="M31,18.4c-0.4,1.1-1.4,1.8-2.5,1.9l1.4-1.5L31,18.4z"/>
<path id="path328" class="st18" d="M29.8,18.9c-0.3,1-1.1,1.6-2.1,1.6l1.3-1.4L29.8,18.9z"/>
<path id="path330" class="st18" d="M38.2,18.9c0,0-1-1.9-2-2.2l1,2.1L38.2,18.9z"/>
<path id="path332" class="st18" d="M37.3,18.8c0,0-1.4-2.5-2.5-2.8l1.4,2.7L37.3,18.8z"/>
<path id="path334" class="st18" d="M30.8,15.3c2.8-0.1,4.4,2.9,4.4,2.9h-1.1c-0.5-0.7-1-1.4-1.6-2C31.9,15.9,31.4,15.6,30.8,15.3
	L30.8,15.3z"/>
<path id="path336" class="st3" d="M29.1,16.1c1.5-0.6,3.2,2,3.2,2L31,18.4c-0.3-0.6-0.7-1.2-1.1-1.7C29.8,16.4,29.1,16.1,29.1,16.1
	L29.1,16.1z"/>
<path id="path338" class="st19" d="M29.1,16.1c1.5-0.6,3.2,2,3.2,2L31,18.4c-0.3-0.6-0.7-1.2-1.1-1.7C29.8,16.4,29.1,16.1,29.1,16.1
	L29.1,16.1z"/>
<path id="path340" class="st18" d="M27.8,17c1.8-1.3,3.2,1.3,3.2,1.3l-0.8,0.3c0,0-0.6-0.8-0.8-1.1C29,17.3,27.8,16.9,27.8,17
	L27.8,17z"/>
<path id="path342" class="st18" d="M30.2,18.5c0,0-1.6-1.5-3.1-0.9l2,1.4L30.2,18.5L30.2,18.5z"/>
<path id="path344" class="st18" d="M29,19.1c-0.7-0.8-1.8-1-2.7-0.5l2,0.9L29,19.1L29,19.1z"/>
<path id="path346" class="st19" d="M39,19.4c-3.6-1.7-7.7-1.7-11.2,0.1"/>
<path id="path348" class="st18" d="M29.8,15.7c2.1-0.7,3.9,2.5,3.9,2.5l-1.1-0.1c-0.3-0.5-0.6-0.9-1-1.3
	C31.1,16.3,30.5,16,29.8,15.7L29.8,15.7z"/>
<path id="path350" class="st18" d="M36.5,18.5c0,0-2.6,1.8-3.7,1.6l2.5-1.8C35.4,18.3,36.5,18.5,36.5,18.5z"/>
<path id="path352" class="st18" d="M33.5,29.9c0,0,1.1-1.6,0.9-2C34.4,27.8,32.8,28.7,33.5,29.9z"/>
<path id="path354" class="st18" d="M38.5,19.6c0.1,1-0.1,2-0.5,2.9l-0.3-2L38.5,19.6L38.5,19.6z"/>
<path id="path356" class="st18" d="M38,20.3c0,0,0.3,2.2-0.4,3.1l-0.4-2.3L38,20.3z"/>
<path id="path358" class="st18" d="M36.7,22c0,0,0.6,2.4-0.3,3.6L36,22.9L36.7,22z"/>
<path id="path360" class="st18" d="M34.6,25.8c0.7,0.2,1,1,0.8,1.7c0,0.1-0.1,0.2-0.2,0.3l-0.8-1.1L34.6,25.8L34.6,25.8z"/>
<path id="path362" class="st18" d="M38.4,19.7c-1.1,0.5-2.1,1.2-3,2l2.4-1.2L38.4,19.7L38.4,19.7z"/>
<path id="path364" class="st18" d="M37.8,20.4c-1.3,0.7-2.6,1.6-3.8,2.5l3.2-1.6L37.8,20.4z"/>
<path id="path366" class="st18" d="M37.1,21.3c0,0-2.4,1-2.8,2l2.3-1.1L37.1,21.3L37.1,21.3z"/>
<path id="path368" class="st18" d="M36.4,22.3c-1.1,0.4-2.1,1.1-2.8,2l2.3-1.2L36.4,22.3L36.4,22.3z"/>
<path id="path370" class="st18" d="M35.1,24.6c0,0-2,0.9-2.3,2l2-1L35.1,24.6L35.1,24.6z"/>
<path id="path372" class="st18" d="M34.6,25.8c0,0-1.9,0.6-2,1.8l1.8-0.9L34.6,25.8L34.6,25.8z"/>
<path id="path374" class="st18" d="M34.4,26.5c0,0-1.5,0.6-1.6,1.8l1.6-1V26.5L34.4,26.5z"/>
<path id="path376" class="st18" d="M34.3,27.4c0,0-1.8,0.8-1.6,1.9l1.6-1.4V27.4z"/>
<path id="path378" class="st19" d="M39.2,18.9c0,0-5.2,5-5.1,9.4"/>
<path id="path380" class="st18" d="M35.8,23.4c-1.2,0.3-2.2,1.2-2.7,2.3l2.2-1.3L35.8,23.4L35.8,23.4z"/>
<path id="path382" class="st18" d="M37.2,21.2c0,0,0.4,2.7-0.1,3.3l-0.6-2.3L37.2,21.2L37.2,21.2z"/>
<path id="path384" class="st18" d="M36.1,23c0,0,0.6,2.3-0.2,3.5l-0.4-2.4C35.5,24.1,36.1,23,36.1,23z"/>
<path id="path386" class="st18" d="M35.3,24.2c0.5,0.9,0.6,2,0.2,3l-0.8-1.9L35.3,24.2L35.3,24.2z"/>
<path id="path388" class="st18" d="M34.5,26.8c0.4,0.4,0.6,1,0.5,1.5l-0.7-0.8L34.5,26.8L34.5,26.8z"/>
<path id="path390" class="st18" d="M34.2,27.5c0,0,1.1,0.5,0.1,2l-0.1-1.8V27.5L34.2,27.5z"/>
<path id="path392" class="st18" d="M36.8,19.8c0,0-3-1.2-4-0.5l3.1,0.9L36.8,19.8z"/>
<path id="path394" class="st18" d="M29.5,26.1c0,0,1.1,0.4,2-1.5C30.6,24.6,29.8,25.2,29.5,26.1z"/>
<path id="path396" class="st18" d="M38.4,19.1c0,0-0.8,2-1.8,2.4l0.9-2.1C37.5,19.4,38.4,19.1,38.4,19.1z"/>
<path id="path398" class="st21" d="M37.7,19.5c0,0-0.9,2.3-1.8,2.8l1-2.5L37.7,19.5L37.7,19.5z"/>
<path id="path400" class="st18" d="M36.2,20c0,0-1,2.6-2.1,3.2l1.3-2.8C35.4,20.4,36.2,20,36.2,20z"/>
<path id="path402" class="st18" d="M35.3,20.7c0,0-0.7,2.6-2.1,3.2l1.1-2.5L35.3,20.7L35.3,20.7z"/>
<path id="path404" class="st18" d="M34.1,21.3c0,0-0.2,2.5-1.6,3l0.7-2.3L34.1,21.3L34.1,21.3z"/>
<path id="path406" class="st18" d="M31.5,24c0,0,0.7,1.2-0.8,2.3l0.6-1.9C31.3,24.4,31.5,24,31.5,24z"/>
<path id="path408" class="st18" d="M33,22.4c0.2,1-0.1,2-0.8,2.7l0.3-1.8C32.5,23.3,33,22.4,33,22.4z"/>
<path id="path410" class="st18" d="M32.1,23.4c0.3,0.8,0,1.8-0.7,2.3l0.2-1.7L32.1,23.4z"/>
<path id="path412" class="st18" d="M38.4,19.1c-0.8-0.4-1.8-0.6-2.7-0.6l1.8,1.1L38.4,19.1z"/>
<path id="path414" class="st18" d="M37.7,19.5c0,0-2.3-1.1-3.2-0.8l2.4,1.2L37.7,19.5z"/>
<path id="path416" class="st18" d="M31.1,20.3c2-1.6,4.8-0.1,4.8-0.1l-0.8,0.5c-0.7-0.3-1.4-0.5-2.1-0.6
	C32.4,20.1,31.8,20.1,31.1,20.3L31.1,20.3z"/>
<path id="path418" class="st18" d="M30.3,21.8c0.8-1.2,3.5-0.3,3.5-0.3L33,22.4c-0.5-0.3-1-0.6-1.6-0.7
	C31.1,21.7,30.7,21.8,30.3,21.8z"/>
<path id="path420" class="st18" d="M29.8,23c0.6-1.8,3-0.6,3-0.6L32.3,23c-0.4-0.2-0.7-0.3-1.1-0.4C30.9,22.7,29.8,23,29.8,23
	L29.8,23z"/>
<path id="path422" class="st18" d="M32.3,22.9c0,0-2-0.3-2.8,0.9h2.2L32.3,22.9z"/>
<path id="path424" class="st18" d="M31.7,23.9c-0.9-0.2-1.9,0.2-2.3,1.1l1.9-0.4C31.3,24.7,31.7,23.9,31.7,23.9z"/>
<path id="path426" class="st19" d="M39.3,19.1c-3.5,0.6-6.6,2.8-8.2,5.9"/>
<path id="path428" class="st18" d="M30.5,21.1c1.2-1.7,4.3-0.2,4.3-0.2L34,21.4c-0.5-0.2-0.9-0.3-1.4-0.4
	C31.9,20.9,31.2,20.9,30.5,21.1L30.5,21.1z"/>
<path id="path430" class="st18" d="M36.9,19.7c0,0-1,2.6-1.8,3l0.8-2.6L36.9,19.7L36.9,19.7z"/>
<path id="path432" class="st22" d="M29.3,6.7c0,0.6-0.3,1.1-0.6,1.6c-0.4,0.6-2.6,4.3-8.9,1.7c0,0-0.7,6.3-8.1,6.9
	c0.9,0.8,1.3,2.1,0.9,3.3c-0.2,1.2-1.1,3-2.4,6s-3,7-3,10.6S8,47.7,15.7,51.2l-0.1,1c0,0-4.5-1.9-5.6-2.9s-1.4-0.4-1.4-0.1
	c0,0-0.6-0.1-0.6-0.6s0-1.1,1-1c-0.6-0.8-1.2-1.7-1.7-2.6c-0.3-0.7-1-1.3-1.3-0.9c0,0,0.1-0.6,0.5-0.6s0.3-0.7,0.1-1.2s-0.6-1-0.9-1
	c-0.6,0-0.8,0.1-0.8,0.6c0,0-0.4-0.3-0.4-0.6c-0.1-0.8,0-1.3,0.7-1.5c0.4-0.1,1.1,0.2,1.1,0.4s-0.1-1.3-0.1-1.3
	c-0.1-0.7-0.2-1.3-0.4-2c-0.4-1.1-1.2-1.1-1.8-0.5c0,0-0.2-1,0.1-1.3s1.3-1.4,2.3,0.4c0.1-1,0-2-0.1-2.9c-0.4-0.5-1.1-0.7-1.6-0.4
	c0,0-0.3-1.3,1.2-1.3c0.5,0,1,0.4,1,0.9c0.4-1.9,1.1-3.8,2-5.5c1.3-1.8,4.3-6.9,2.6-8.9c0,0-0.4,0.4-0.7,0.3s-0.3-0.7,0-0.7
	c0,0-0.8,0.1-0.4-0.7c0.2-0.5,0.6-0.4,0.7,0c0,0-0.2-0.9,0.6-0.6s0.4,0.5,0.1,0.7c0,0,6.2-1.1,7.1-5.9c0,0-0.4,0.7-0.7,0
	s0.5-0.8,0.5-0.8S18,9.6,18.7,9c0.4-0.3,1.1-0.1,1,0.3c0,0,0.3-0.6,0.6-0.1c0,0,0.7,0.6,0,0.8c0,0,5.5,1.6,8.1-2
	c0,0-0.7-0.3-0.4-0.7c0.4-0.6,0.7-0.4,1,0c0,0-0.5-1.1,0.6-1.1s0.6,1.1,0.6,1.1c0.3-0.4,0.6-0.6,1,0C31.5,7.7,30.8,8,30.8,8
	c2.7,3.8,8.1,2,8.1,2C38.3,9.8,39,9,39,9c0.1-0.2,0.3-0.2,0.5-0.1c0.1,0,0.1,0.1,0.1,0.2c-0.1-0.4,0.6-0.6,1-0.3
	c0.7,0.6,0,0.7,0,0.7s1,0,0.5,0.8s-0.7,0-0.7,0c0.8,4.9,7.1,5.9,7.1,5.9c-0.3-0.1-0.6-0.5,0.1-0.7s0.6,0.6,0.6,0.6
	c0.1-0.4,0.5-0.5,0.7,0c0.5,0.9-0.4,0.7-0.4,0.7c0.3,0,0.4,0.6,0,0.7c-0.3,0-0.5-0.1-0.7-0.3c-1.6,2,1.3,7.1,2.6,8.9
	c1,1.7,1.6,3.6,2,5.5c0-0.5,0.5-0.9,1-0.9c0.5-0.2,1.1,0.2,1.2,0.7c0.1,0.2,0.1,0.4,0,0.6c-0.6-0.5-1.3,0-1.6,0.4s0,2.9,0,2.9
	c1-1.8,2-0.7,2.3-0.4s0.1,1.3,0.1,1.3c-0.6-0.6-1.4-0.6-1.8,0.5c-0.2,0.6-0.4,1.3-0.4,2c0,0-0.1,1.6-0.1,1.3s0.8-0.5,1.1-0.4
	c0.7,0.2,0.8,0.6,0.7,1.5c0,0.3-0.2,0.5-0.4,0.6c0-0.4-0.3-0.6-0.8-0.6c-0.3,0-0.7,0.5-0.8,1s-0.3,1.1,0.1,1.2s0.5,0.6,0.5,0.6
	c-0.3-0.4-1,0.1-1.3,0.9c-0.5,0.9-1.1,1.7-1.7,2.5c1-0.1,1.1,0.6,1,1s-0.6,0.6-0.6,0.6c0-0.4-0.4-0.9-1.4,0.1
	c-1.8,1.1-3.6,2.1-5.6,2.9l-0.1-1c7.7-3.5,8.6-10.6,8.6-14.3s-1.6-7.7-3-10.6s-2-4.9-2.4-6c-0.3-1.2,0-2.4,0.9-3.2
	c-7.4-0.6-8.1-6.9-8.1-6.9c-6.3,2.4-8.5-1.2-8.9-1.7C30.1,8.1,29.5,7.5,29.3,6.7z"/>
<path id="path434" class="st23" d="M19.4,51.2c0,0-0.9,0-0.5-0.5c0.2-0.4,0.6-0.5,1-0.3c0.2,0.1,0.3,0.2,0.3,0.4
	c0.1,0.8-0.3,1.7-1.1,2c-1,0.4-3.4,0-3.6,1.1c0,0-0.6-0.8,0.1-1.1c0,0-2.3-0.6-1.2-1.5c0.3-0.2,0.8,0.1,0.5,0.6c0,0,0.9,0.2,0.8-1.2
	c0.7,0.7,1.7,1.2,2.7,1.3C19.2,52.2,19.6,51.7,19.4,51.2L19.4,51.2z"/>
<path id="path436" class="st23" d="M39.1,51.2c0,0,0.9,0,0.5-0.5c-0.2-0.4-0.6-0.5-1-0.3c-0.2,0.1-0.3,0.2-0.3,0.4
	c-0.1,0.8,0.3,1.7,1.1,2c1,0.4,3.4,0,3.7,1.1c0,0,0.6-0.8-0.1-1.1c0,0,2.3-0.6,1.2-1.5c-0.3-0.2-0.8,0.1-0.5,0.6
	c0,0-0.9,0.2-0.8-1.2c-0.7,0.7-1.7,1.2-2.7,1.3C39.3,52.2,38.9,51.7,39.1,51.2L39.1,51.2z"/>
<path id="path438" class="st22" d="M29.2,57.8c0,0,1.8-2.9,3.2-3.2s4.4-1.1,3.1-2.5c0,0,1.3-0.5,1.3,0.8c0,0,0.8-0.1,0.8-0.6
	c0,0-0.6-0.4-0.4-0.7s1.3-0.4,1.3,0.4s-0.1,1.4-1.1,1.8c0,0,0.6,0.5,0.4,1c-1.1-0.5-2.5-0.4-3.5,0.2c0.4,0.1,0.6,0.6,0.5,1
	c0,0.1-0.1,0.2-0.2,0.3C34.9,56.1,32.6,54.2,29.2,57.8L29.2,57.8z"/>
<path id="path440" class="st22" d="M29.3,57.8c0,0-1.8-2.9-3.2-3.2s-4.4-1.1-3.1-2.5c0,0-1.3-0.5-1.3,0.8c0,0-0.8-0.1-0.8-0.6
	c0,0,0.6-0.4,0.4-0.7S20,51.2,20,52s0.1,1.4,1.1,1.8c0,0-0.6,0.5-0.4,1c1.1-0.5,2.5-0.4,3.5,0.2c-0.4,0.1-0.6,0.6-0.5,1
	c0,0.1,0.1,0.2,0.2,0.3C23.6,56.2,25.8,54.3,29.3,57.8L29.3,57.8z"/>
<path id="path442" class="st6" d="M29.3,4.3c2.7-0.1,5.4,0.2,8.1,0.8v1.3c0,0.6,0.4,0.7,0.9,0.6c4.5-1.2,5.6-1.1,6-1.1s2,0.3,5.3,2
	s4.6,1.7,4.6,1.7v1.1c0.1,0.6,0.6,0.4,1.3,1.1c1.2,1.2,2.2,2.7,2.7,4.4c0,0,1.8-6.5-2.8-8.8l-0.1-1.5c-1.3-0.2-2.6-0.7-3.8-1.3
	c-1.3-0.8-4-2.7-7.4-2.7c-1.9,0-3.8,0.3-5.7,0.9l0.2-1.6c0,0-2.6-1-9.4-1s-9.4,1-9.4,1L20,2.6c-1.8-0.6-3.6-0.9-5.5-0.8
	c-3.4,0-6,1.8-7.4,2.7c-1.2,0.6-2.4,1-3.7,1.3L3.3,7.3c-4.7,2.3-2.7,8.8-2.7,8.8C1.1,14.5,2,13,3.3,11.8c0.8-0.7,1.2-0.5,1.3-1.1
	V9.6c0,0,1.3,0.1,4.6-1.7s4.9-2,5.3-2s1.5-0.1,6,1.1c0.5,0.1,0.8,0,0.8-0.6V5C23.9,4.5,26.6,4.3,29.3,4.3L29.3,4.3z"/>
<path id="path444" class="st12" d="M19.9,2.9L20,5.3c0,0.3,0.2,0.5,0.4,0.6c0.4,0.1,0.6,0.6,0.4,1c0,0,0,0.1-0.1,0.1 M21.2,5.1
	c-0.4,0-0.8,0.1-1.1,0.2 M3.2,7.5L3.3,10l0.6,0.2c0.3,0,0.7,0.4,0.6,0.7 M4.4,9.8c0,0-0.8-0.1-1.1,0.2 M38.4,3.1l-0.1,2.2
	c-0.1,0.3-0.2,0.5-0.4,0.7c-0.3,0.3-0.5,0.5-0.3,1 M37.3,5.1c0.3,0,0.6,0,0.9,0.1 M55.3,7.5L55.2,10l-0.6,0.2
	c-0.3,0-0.7,0.4-0.6,0.7 M54.1,9.8c0,0,0.8-0.1,1.1,0.2"/>
<path id="path446" class="st24" d="M21.5,4.4L21.5,4.4c0.1-0.1,0.1-0.1,0.2-0.2c0.1,0,0.1,0,0.1-0.1l0,0l-0.3-1.3
	c0-0.3,0-0.3-0.3-0.2h-0.1V2.5l1.1-0.2v0.1h-0.1C22,2.4,22,2.5,22,2.5l0.3,1.4c0,0.1,0,0.1,0.1,0.1h0.2c0.4-0.1,0.6-0.4,0.6-0.8h0.1
	L23.4,4L21.5,4.4z"/>
<path id="path448" class="st24" d="M23.7,3.6l-0.1-0.1h0.2c0.1,0,0.1-0.1,0.1-0.2l-0.1-1.4V1.7c0-0.1,0-0.1-0.1-0.1h-0.2V1.5
	l1.1-0.1v0.1h-0.1c-0.1,0-0.1,0-0.1,0.1v0.2l0.1,1.4c0,0.1,0,0.1,0.1,0.1H25v0.1L23.7,3.6L23.7,3.6z"/>
<path id="path450" class="st24" d="M25.2,3.4L25.2,3.4c0.1-0.1,0.3-0.1,0.3-0.2V3.1l-0.1-1.5V1.4h-0.3V1.3l1.2-0.1
	c0.2,0,0.4,0,0.6,0.1C27,1.4,27,1.5,27,1.7c0,0.4-0.3,0.4-0.6,0.5l0,0c0.4,0,0.7,0.2,0.8,0.5c0,0.1-0.1,0.3-0.1,0.4
	c-0.1,0.1-0.3,0.1-0.4,0.1h-1.5C25.2,3.2,25.2,3.4,25.2,3.4z"/>
<path id="path452" class="st24" d="M27.8,3.2L27.8,3.2c0.1-0.1,0.3-0.1,0.3-0.2V1.2L28,1.1h-0.2V1h2v0.8h-0.1
	c-0.1-0.4-0.4-0.7-0.8-0.6l0,0c-0.1,0-0.1,0-0.2,0.1l-0.1,0.1v0.7C28.9,2.1,29,2,29,1.7l0,0v1h-0.1c0-0.3-0.1-0.4-0.4-0.4V3
	c0,0.1,0,0.2,0.1,0.2h0.1c0.4,0,0.6-0.2,0.7-0.6h0.1v0.8L27.8,3.2L27.8,3.2z"/>
<path id="path454" class="st24" d="M31.5,1.1h0.2c0.1,0,0.4,0.1,0.5,0.1s0.2,0.3,0.1,0.4c0,0.4-0.4,0.5-0.6,0.5l0,0
	c0.3,0.1,0.4,0.2,0.4,0.4v0.2c0,0.1,0,0.1,0.1,0.1l0,0c0.1,0.1,0.1-0.1,0.1-0.3h0.1v0.1C32.3,2.8,32.1,3,31.9,3
	c-0.1,0-0.3-0.1-0.4-0.1s-0.1-0.2-0.1-0.3l0,0c0-0.3,0-0.4-0.3-0.4h-0.2V3c0,0.1,0,0.1,0.1,0.1h0.2v0.1L30,3.1V3h0.1
	c0.1,0,0.1,0,0.1-0.1l0.1-1.3V1.2c-0.1-0.1-0.1,0-0.2-0.1H30V0.9L31.5,1.1L31.5,1.1z"/>
<path id="path456" class="st24" d="M33,2l0.1-0.8l2,0.3L35,2.4h-0.1c0-0.3-0.1-0.6-0.4-0.7c-0.1,0-0.1,0-0.1,0.1v0.1l-0.2,1.5
	c0,0.1,0,0.1,0.1,0.1h0.2l-0.1,0.1l-1.1-0.1V3.4h0.4V3.3l0.2-1.4V1.7c0-0.1,0-0.1-0.1-0.1c-0.4-0.1-0.5,0.4-0.6,0.6L33,2z"/>
<path id="path458" class="st24" d="M35.4,2l1.1,0.2v0.1h-0.2v0.1l0.3,0.7L37,2.8c0.1,0,0.1,0,0.1-0.1V2.6C37,2.5,37,2.5,36.9,2.5
	V2.3l0.8,0.1v0.1c-0.2,0-0.4,0.1-0.5,0.2C37.1,2.9,37,3,36.8,3.1l-0.2,0.2L36.5,4v0.1l0,0c0.1,0,0.2,0.1,0.3,0.1v0.1l-1.1-0.2V4
	c0.1,0,0.2,0.1,0.3,0c0.1,0,0.1,0,0.1-0.1l0.1-0.5l-0.4-1C35.7,2.3,35.5,2.2,35.4,2L35.4,2z"/>
<path id="path460" class="st24" d="M39,6L39,6c0.1-0.1,0.1-0.1,0.1-0.2V5.7l-0.3-1.1V4.5h-0.1l-0.1-0.1l0.6-0.1c0.1,0,0.3,0,0.4,0.1
	c0.1,0,0.1,0.1,0.1,0.2C39.8,4.9,39.6,5,39.5,5l0,0c0.2,0,0.4,0.1,0.5,0.3v0.4c-0.1,0.1-0.1,0.1-0.2,0.1h-0.2L39,6z"/>
<path id="path462" class="st24" d="M40.5,4.1h0.4C41,4.2,41,4.2,41,4.4s-0.1,0.4-0.2,0.5l0,0c0.1,0,0.2,0.1,0.3,0.3l0.1,0.1l0.1,0.1
	l0,0c0.1,0,0.1-0.1,0.1-0.2h0.1v0.1c0,0.2-0.1,0.3-0.2,0.4c-0.1,0-0.1,0-0.1-0.1s-0.1-0.1-0.1-0.2V5.3C41,5.2,41,5,40.9,5h-0.2
	l0.1,0.5v0.1c0,0.1,0,0.1,0.1,0.1h0.2v0.1l-0.6,0.1V5.8h0.1c0.1,0,0.1,0,0.1-0.1l-0.2-1l-0.1-0.1h-0.2V4.5L40.5,4.1L40.5,4.1z"/>
<path id="path464" class="st24" d="M41.6,5.2c-0.1-0.1-0.2-0.4-0.3-0.5c-0.1-0.2-0.1-0.4,0-0.6c0.1-0.1,0.2-0.3,0.4-0.3
	c0.1,0,0.3,0,0.4,0.1c0.1,0.2,0.2,0.3,0.3,0.5c0,0.2,0,0.4-0.1,0.6s-0.1,0.3-0.4,0.3C41.8,5.3,41.7,5.3,41.6,5.2z"/>
<path id="path466" class="st24" d="M42.4,3.6L43,3.5v0.1c-0.1,0-0.1,0-0.1,0.1v0.1L43,4.5c0,0.1,0,0.2,0.1,0.3c0,0.1,0,0.1,0.1,0.1
	h0.1c0.1-0.1,0.1-0.1,0.2-0.1V4.4l-0.1-0.6c0-0.1,0-0.2-0.1-0.3h-0.1l-0.1-0.1l0.4-0.1v0.1c-0.1,0-0.1,0.1-0.1,0.4l0.1,0.6v0.2
	c0,0.1-0.1,0.2-0.1,0.3S43.3,5,43.2,5s-0.3,0-0.4-0.1c-0.1-0.1-0.1-0.2-0.2-0.4l-0.1-0.8L42.4,3.6z"/>
<path id="path468" class="st24" d="M44.8,3.5L44.8,3.5l0.1,0.6h-0.1c-0.1-0.3-0.1-0.4-0.3-0.5h-0.1c-0.2,0-0.3,0.2-0.3,0.4v0.8
	c0,0.1,0.1,0.2,0.2,0.2h0.1l0.1-0.1V4.6h-0.2V4.5h0.5v0.1h0.1v0.6h-0.1L44.7,5c-0.1,0.1-0.2,0.2-0.4,0.2S44,5.1,43.9,4.9
	c-0.1-0.1-0.1-0.4-0.1-0.6s0.1-0.4,0.2-0.6c0.1-0.1,0.1-0.1,0.3-0.1h0.2c0.1,0,0.1,0,0.1,0.1h0.1L44.8,3.5L44.8,3.5z"/>
<path id="path470" class="st24" d="M45.3,3.5l0.6,0.1v0.1h-0.1v0.1l-0.1,0.4l0.4,0.1l0.1-0.4V3.7l-0.1-0.1V3.5l0.6,0.1v0.1h-0.1
	l-0.1,0.1l-0.2,1V5c0.1,0,0.1,0,0.1,0.1v0.1l-0.6-0.1V5h0.1C46,5,46,5,46,4.9l0,0l0.1-0.4l-0.4-0.1l-0.1,0.4v0.1h0.1V5l-0.6-0.1V4.8
	h0.2c0-0.1,0-0.1,0.1-0.1l0.2-1.1C45.4,3.6,45.4,3.6,45.3,3.5C45.4,3.6,45.3,3.6,45.3,3.5L45.3,3.5z"/>
<path id="path472" class="st24" d="M46.5,4.4l0.2-0.6l0.9,0.3l-0.1,0.6h-0.1c0.1-0.2,0.1-0.5-0.1-0.6h-0.1c0,0.1,0,0.1-0.1,0.1
	l-0.4,1.1c0,0.1-0.1,0.1,0,0.1s0.1,0,0.1,0.1v0.1l-0.6-0.2l0.1-0.1h0.1c0-0.1,0-0.1,0.1-0.1l0.4-1.1V3.9C46.8,4,46.7,4.3,46.5,4.4z"
	/>
<path id="path474" class="st24" d="M48.3,4.4l0.5,0.2l-0.1,0.1c-0.1,0-0.1-0.1-0.1,0s0,0.1-0.1,0.1l-0.3,0.7
	c-0.1,0.1-0.1,0.1-0.1,0.3v0.1c0,0.1,0,0.1,0.1,0.1s0.1,0,0.3-0.1s0.1-0.1,0.1-0.3l0.2-0.5c0.1-0.1,0.1-0.2,0-0.3l0,0h-0.1l0.1-0.1
	l0.4,0.1l-0.1,0.1C49,4.8,48.9,5,48.8,5.1l-0.2,0.6l-0.1,0.1C48.4,5.9,48.4,6,48.2,6s-0.1,0-0.3-0.1s-0.2-0.1-0.3-0.2s0-0.3,0.1-0.4
	l0.4-0.8V4.4L48,4.3L48.3,4.4z"/>
<path id="path476" class="st24" d="M49.1,5.8L49.1,5.8c0,0.3,0,0.6,0.1,0.7s0.2,0,0.3-0.1s0.1-0.2,0-0.3l0,0L49.4,6
	c-0.1-0.1-0.1-0.1-0.1-0.3c0-0.1,0-0.3,0.1-0.4c0-0.2,0.2-0.3,0.4-0.3c0.1,0,0.1,0,0.2,0.1c0.1,0,0.1,0.1,0.1,0.2l0.1-0.1h0.1
	L50,5.7h-0.1C50,5.4,50,5.2,49.8,5.1c-0.1,0-0.2,0-0.3,0.1s0,0.2,0.1,0.3l0.1,0.1c0.2,0.2,0.2,0.5,0.1,0.7c-0.1,0.1-0.1,0.2-0.3,0.3
	s-0.2,0-0.3,0S49.1,6.5,49,6.3l-0.1,0.1h-0.1L49.1,5.8L49.1,5.8z"/>
<path id="path478" class="st24" d="M50.8,5.7L51.3,6l-0.1,0.1L51.1,6c0,0.1,0,0.1-0.1,0.1l-0.2,0.4l0.4,0.2l0.2-0.4V6.1L51.3,6
	l0.1-0.1l0.5,0.3l-0.1,0.1h-0.1c-0.1,0-0.1,0-0.1,0.1l-0.5,0.8L51,7.3v0.1c0.1,0,0.1,0,0.1,0.1L51,7.6l-0.5-0.3l0.1-0.1l0.1,0.1
	c0.1,0,0.1,0,0.1-0.1L51,6.8l-0.4-0.1l-0.3,0.4c0,0.1-0.1,0.1,0,0.1l0.1,0.1l-0.1,0.1l-0.5-0.3L49.9,7L50,7.1h0.1
	c0-0.1,0-0.1,0.1-0.1l0.5-0.9L50.8,6c0-0.1,0-0.1-0.1-0.1L50.8,5.7L50.8,5.7z"/>
<path id="path480" class="st24" d="M51.2,7.7L51.2,7.7c0.1-0.1,0.2,0,0.2-0.1V7.5l0.4-1V6.3l-0.1-0.1V6.1l0.9,0.4L52.4,7h-0.1
	c0.1-0.3,0.1-0.5-0.1-0.6h-0.1c-0.1,0-0.1,0-0.1,0.1s0,0.1-0.1,0.1l0,0L51.8,7c0.1,0.1,0.3,0,0.4-0.1h0.1l-0.4,0.7l-0.1-0.1
	c0.1-0.1,0.1-0.4-0.1-0.4l-0.2,0.4c0,0.1-0.1,0.1,0,0.1s0.1,0,0.1,0.1c0.2,0.1,0.4,0,0.5-0.3h0.1l-0.3,0.5L51.2,7.7L51.2,7.7z"/>
<path id="path482" class="st24" d="M53.4,6.9L53.4,6.9C53.5,7,53.6,7,53.7,7.1v0.4c0,0.2-0.2,0.3-0.4,0.3l0,0
	c0.1,0.1,0.1,0.2,0.1,0.4v0.1l-0.1,0.1l0,0c0.1,0.1,0.1-0.1,0.1-0.1h0.1l-0.1,0.1c-0.1,0.1-0.2,0.2-0.4,0.1c-0.1,0-0.1,0-0.1-0.1V8
	c0.1-0.1,0.1-0.3,0-0.4c0,0,0,0-0.1,0h0.1L52.8,8v0.2H53l-0.1,0.1l-0.6-0.2L52.4,8h0.1c0.1,0,0.1,0,0.1-0.1L53,7l0.1-0.1
	c0-0.1,0-0.1-0.1-0.1l0,0h-0.1L53,6.7L53.4,6.9L53.4,6.9z"/>
<path id="path484" class="st24" d="M53.7,8.6V8.5c0.1,0,0.1,0.1,0.1,0V8.4l0.1-1.1V7.2h-0.1V7.1l1,0.1l-0.1,0.6h-0.1
	c0-0.4-0.1-0.5-0.3-0.5h-0.1v0.1l-0.1,0.4c0.2,0,0.3-0.1,0.3-0.3h0.1l-0.1,0.8l0,0c0-0.2-0.1-0.4-0.2-0.4l-0.1,0.5
	c0,0.1,0,0.1,0.1,0.1h0.1c0.2,0,0.4-0.1,0.4-0.3c0,0,0,0,0-0.1h0.1l-0.1,0.6C54.7,8.7,53.7,8.6,53.7,8.6z"/>
<path id="path486" class="st24" d="M4.1,7.8L4,7.2l1.3-0.3l0.1,0.6l0,0C5.3,7.3,5.2,7,5,7.1c-0.1,0-0.1,0-0.1,0.1v0.1l0.2,1.1
	c0,0.1,0,0.1,0.1,0.1h0.1v0.1L4.5,8.7V8.6c0.1,0,0.1,0,0.1-0.1c0.1,0,0.1,0,0.1-0.1l0,0V8.3L4.5,7.2V7.1H4.4
	C4.2,7.3,4.1,7.5,4.1,7.8L4.1,7.8L4.1,7.8z"/>
<path id="path488" class="st24" d="M5.4,7l0.7-0.3l0.1,0.1L6.1,6.9V7l0.1,0.4l0.5-0.2L6.6,6.8V6.7H6.5c-0.1,0-0.1,0-0.1,0.1V6.7
	l0.7-0.4l0.1,0.1L7.1,6.5c-0.1,0,0,0.1,0,0.1l0.4,0.9c0,0.1,0,0.1,0.1,0.1l0,0h0.1c0.1,0,0.1,0,0.1-0.1l0.1,0.1L7.2,7.9L7.1,7.8
	l0.1-0.1c0.1-0.1,0-0.1,0-0.1L7.1,7.2L6.6,7.4l0.1,0.4c0,0.1,0,0.1,0.1,0.1l0.1-0.1L7,7.9L6.3,8.3V8.2l0.1-0.1c0.1,0,0.1,0,0.1-0.1
	l0,0V7.9L6.1,7c0-0.1,0-0.1-0.1-0.1S5.9,6.9,5.9,7H5.4z"/>
<path id="path490" class="st24" d="M7.7,7.7L7.7,7.7C7.6,7.6,7.8,7.6,7.8,7.5s0-0.1-0.1-0.1l-0.5-1H7.1L7,6.5L6.9,6.4l1.2-0.7
	l0.3,0.5L8.3,6.3C8,6.1,7.9,6,7.6,6.2c-0.1,0-0.1,0-0.1,0.1v0.1c0,0.1,0,0.1,0.1,0.1l0.1,0.4c0.2-0.1,0.2-0.2,0.1-0.4h0.1l0.4,0.6
	L8.2,7.2C8.1,7,7.9,6.9,7.7,7.1L8,7.5l0.1,0.1h0.1c0.2-0.1,0.4-0.3,0.3-0.5c0-0.1,0-0.1-0.1-0.2l0.1-0.1l0.3,0.5L7.7,7.7z"/>
<path id="path492" class="st24" d="M9.5,6.6L9.5,6.6c0-0.1,0-0.1,0.1-0.1s0-0.1,0-0.1L9.2,5.5C9.1,5.4,9.1,5.4,9,5.4H8.9L8.8,5.3
	l0.7-0.4L9.6,5L9.5,5.1c-0.1,0.1-0.1,0.1,0,0.1L10,6.1l0.1,0.1c0.1,0,0.1,0,0.1-0.1c0.2-0.1,0.3-0.3,0.2-0.5V5.5l0.1-0.1l0.2,0.5
	C10.8,5.9,9.5,6.6,9.5,6.6z"/>
<path id="path494" class="st24" d="M11.1,5.6c-0.1-0.1-0.4-0.3-0.4-0.4c-0.1-0.2-0.1-0.4,0-0.6c0.1-0.1,0.3-0.4,0.4-0.4
	c0.2-0.1,0.4-0.1,0.6,0c0.2,0.1,0.4,0.3,0.4,0.4c0.1,0.2,0.1,0.4,0,0.6s-0.2,0.4-0.4,0.4C11.5,5.8,11.3,5.8,11.1,5.6L11.1,5.6z"/>
<path id="path496" class="st24" d="M12,3.8l0.7-0.2v0.1c-0.1,0-0.1,0-0.1,0.1v0.1l0.6,0.8l0.1-0.8V3.8c0-0.1-0.1-0.1-0.2-0.1V3.5
	l0.6-0.1l0.1,0.1c-0.1,0.1-0.2,0.2-0.2,0.4l-0.1,1.3h-0.1l-0.8-1.1L12.5,4h-0.1L12,3.8z"/>
<path id="path498" class="st24" d="M13.8,4.9L13.8,4.9c0.1-0.1,0.2,0,0.2-0.1V4.7l0.1-1.1V3.5h-0.2V3.4l1.4,0.1v0.6h-0.1
	c-0.1-0.4-0.1-0.4-0.5-0.5h-0.1v0.5c0.2,0,0.3-0.1,0.4-0.3h0.1v0.8H15c0-0.2-0.1-0.4-0.3-0.4v0.5c0,0.1,0,0.1,0.1,0.1h0.1
	c0.4,0,0.4-0.1,0.6-0.4h0.1L15.5,5L13.8,4.9L13.8,4.9z"/>
<path id="path500" class="st24" d="M16.2,4.9c-0.1-0.1-0.1-0.4-0.1-0.6s0.2-0.5,0.4-0.5c0.1-0.1,0.4-0.1,0.6-0.1s0.5,0.2,0.5,0.4
	c0.1,0.1,0.1,0.4,0.1,0.6c0,0.3-0.2,0.5-0.4,0.6c-0.1,0.1-0.4,0.1-0.6,0.1S16.4,5.1,16.2,4.9z"/>
<path id="path502" class="st24" d="M17.6,5.4L17.6,5.4l0.2-0.1H18c0-0.1,0-0.1,0.1-0.1l0,0l0.3-1.1V4l-0.1-0.1h-0.1V3.8l1.3,0.4
	l-0.1,0.6h-0.1c0-0.3-0.1-0.5-0.4-0.6h-0.1c0,0.1,0,0.1-0.1,0.1l0,0l-0.1,0.4c0.2,0.1,0.3,0,0.4-0.2h0.1L19,5.2h-0.1V5.1
	c0-0.1-0.1-0.2-0.2-0.3l0,0l-0.1,0.5c0,0.1-0.1,0.1,0.1,0.1h0.1l-0.1,0.1L17.6,5.4L17.6,5.4z"/>
<path id="path504" class="st6" d="M29.3,61.7c-0.6-0.1-1.5-0.2-1.5-0.2l-0.1,0.6c-0.5,0.4-1.2,0.4-1.7,0.1c-1.6-0.8-6.1-3-7.9-3.2
	s-5.5,0.1-7.9-0.8c-1.5-0.6-2.8-1.5-3.8-2.7C5.5,54.2,6,53.8,6,53.8c-1-0.9-1.6-2.2-1.6-3.5c0-0.4,0.3-0.4,0.3-0.4
	c-0.8-1-1.2-2.3-1.1-3.7c0-0.2,0.2-0.4,0.4-0.4l0,0c-1.6-1.6-2.5-3.8-2.4-6.1c1.4,1.4,2.9,2.8,4.5,4c1.6,0.8,0.9,1.4,0.8,1.5L6,46
	c0.2,0.8,0.6,1.5,1.1,2.1c0.6,0.8,0.3,1.1,0.3,1.1L7,49.5c0.2,0.6,0.5,1.1,0.9,1.6c0.8,0.8,0.8,1.1,0.7,1.3l-0.4,0.4
	c1.3,1.5,3.2,2.3,5.2,2.3c2.4-0.1,4.9,0.2,7.2,0.9c2.1,0.7,4.5,2.7,6.1,2.8v-0.6c0.8,0.2,1.7,0.3,2.5,0.4c0.9-0.1,1.7-0.2,2.5-0.4
	V59c1.7-0.1,4-2,6.1-2.8c2.3-0.7,4.7-1,7.2-0.9c2,0,3.8-0.9,5.2-2.3c-0.2-0.1-0.3-0.2-0.4-0.4c-0.2-0.2-0.1-0.5,0.7-1.3
	c0.4-0.5,0.7-1,0.9-1.6L51,49.3c0,0-0.4-0.4,0.3-1.1c0.5-0.7,0.9-1.4,1.1-2.2l-0.8-0.8c-0.1-0.1-0.8-0.6,0.8-1.5
	c1.2-0.6,4.5-4,4.5-4c0.1,2.3-0.8,4.5-2.4,6.1c0,0,0.4-0.1,0.4,0.4c0.1,1.3-0.3,2.6-1.1,3.7c0,0,0.3,0,0.3,0.4
	c-0.1,1.3-0.7,2.6-1.6,3.5c0,0,0.6,0.4-0.3,1.5c-1.1,1.2-2.4,2.1-3.8,2.7c-2.5,0.9-6.2,0.6-7.9,0.8s-6.4,2.6-7.9,3.3
	c-0.5,0.3-1.2,0.3-1.7-0.1l-0.1-0.6C30.7,61.3,29.8,61.7,29.3,61.7z"/>
<path id="path506" class="st12" d="M5.8,44.8c0.2-0.1,0.5,0.1,0.7,0.1s0.4,0.1,0.4,0 M6.8,48.8c0.1-0.1,0.2,0.1,0.3,0.3
	c0.3,0.3,0.4,0.1,0.4,0 M7,49.6c-0.3-0.6-0.2-0.8-0.2-0.8l-2.1,1.1 M7.8,52.4c0.1-0.1,0.3,0,0.5,0c0.1,0,0.3,0,0.4-0.1 M8.2,52.8
	c-0.4-0.5-0.4-0.4-0.4-0.4L6,53.7 M26.7,61.1c0.1,0.2,0.4,0.3,0.6,0.4c0.3,0.1,0.5,0.1,0.4,0.4 M27.8,61.3c-0.4,0-0.8-0.1-1.1-0.2
	v-2.3 M4,45.9l1.8-1.1c-0.1,0.4,0,0.8,0.1,1.1 M52.8,44.8c-0.2-0.1-0.5,0.1-0.7,0.1s-0.4,0.1-0.4,0 M51.7,48.8
	c-0.1-0.1-0.2,0.1-0.3,0.3c-0.3,0.3-0.4,0.1-0.4,0 M51.5,49.6c0.3-0.6,0.2-0.8,0.2-0.8l2.1,1.1 M50.7,52.4c-0.1-0.1-0.3,0-0.5,0
	c-0.4,0-0.4-0.1-0.4-0.1 M50.3,52.8c0.4-0.5,0.4-0.4,0.4-0.4l1.8,1.3 M31.8,61.1c-0.2,0.2-0.4,0.3-0.6,0.4c-0.3,0.1-0.5,0.1-0.4,0.4
	 M30.8,61.3c0.4,0,0.8-0.1,1.1-0.2v-2.3 M54.6,45.9l-1.9-1.1c0.1,0.4,0,0.8-0.1,1.1"/>
<path id="path508" class="st24" d="M10.2,55.1l0.2,0.1l0.4,0.4c0.1,0.1,0,0.4-0.1,0.4c-0.1,0.3-0.5,0.2-0.8,0.1l0,0
	c0.1,0.2,0.2,0.4,0.1,0.6l-0.1,0.1c0,0.1,0,0.1-0.1,0.1V57c0.1,0.1,0.3-0.1,0.3-0.1l0.1,0.1c0,0.1,0,0.1-0.1,0.1
	c-0.2,0.1-0.4,0.1-0.6,0C9.4,57,9.3,57,9.3,56.8c0-0.1,0-0.3,0.1-0.4l0.1-0.1c0.1-0.2,0.2-0.4,0-0.5l-0.1-0.1l-0.1-0.1l-0.4,0.6
	l-0.1,0.1v0.1l0.1,0.1L9,56.6l-0.1,0.1L8,56.1L8.1,56c0.1,0,0.1,0,0.1,0.1c0.1,0.1,0.1,0,0.2-0.1l0.7-1.1c0.1-0.1,0.1-0.1,0.1-0.2
	c0-0.1-0.1-0.1-0.1-0.1L9,54.5l0.1-0.1L10.2,55.1L10.2,55.1z"/>
<path id="path510" class="st24" d="M10.6,57.5l0.1-0.1c0.1,0,0.3,0.1,0.3,0s0-0.1,0.1-0.1l0.3-1.4v-0.2c-0.1,0-0.1,0-0.3-0.1
	l0.1-0.1l1.8,0.4v0.7h-0.1c0-0.4-0.1-0.6-0.6-0.7h-0.2c-0.1,0-0.1,0-0.1,0.1s0,0.1-0.1,0.1l-0.1,0.5c0.3,0.1,0.4-0.1,0.5-0.3h0.1
	l-0.2,0.9l-0.1-0.1c0.1-0.3-0.1-0.4-0.4-0.5l-0.1,0.6c0,0.1-0.1,0.1,0.1,0.2c0.1,0,0.1,0,0.1,0.1c0.4,0.1,0.6-0.1,0.8-0.4l0.1,0.1
	l-0.1,0.7C12.6,57.9,10.6,57.5,10.6,57.5z"/>
<path id="path512" class="st24" d="M13,58L13,58l0.1-0.1c0.1,0,0.1-0.1,0.1-0.1l0.1-1.5H13v-0.1l1.1,0.1h0.1c0.2,0,0.4,0,0.5,0.1
	s0.2,0.2,0.2,0.4c0,0.5-0.6,0.6-0.9,0.5h-0.3V58H14v0.1L13,58L13,58z"/>
<path id="path514" class="st24" d="M15.2,56.1l1.1,0.1v0.1c-0.1,0-0.2,0-0.3,0.1c-0.1,0-0.1,0-0.1,0.1l0,0l-0.1,0.9v0.4
	c0.1,0.1,0.1,0.1,0.2,0.1c0.1,0,0.1,0.1,0.3,0.1s0.3-0.1,0.4-0.1c0.1-0.1,0.1-0.3,0.1-0.4l0.1-0.7c0-0.1,0-0.3-0.1-0.4h-0.1v-0.2
	l0.8,0.1v0.1c-0.3,0-0.4,0.1-0.4,0.4v0.8c0,0.1,0,0.1-0.1,0.3s-0.1,0.3-0.4,0.4c-0.1,0.1-0.3,0.1-0.5,0.1c-0.2,0-0.4-0.1-0.6-0.2
	c-0.2-0.1-0.2-0.4-0.2-0.5l0.1-1.1v-0.1h-0.3C15.1,56.5,15.2,56.1,15.2,56.1z"/>
<path id="path516" class="st24" d="M17.4,58.2L17.4,58.2c0.1-0.1,0.3,0,0.3-0.1V58l0.3-1.4v-0.1l0,0c-0.1,0-0.1-0.1-0.2-0.1v-0.1
	l1.2,0.2c0.2,0,0.4,0.1,0.5,0.3c0.1,0.1,0.1,0.2,0.1,0.4c-0.1,0.3-0.3,0.5-0.6,0.4l0,0c0.3,0.1,0.6,0.3,0.6,0.6
	c-0.1,0.1-0.1,0.3-0.3,0.4c-0.1,0.1-0.3,0.1-0.4,0.1s-0.1,0-0.1-0.1h-0.3L17.4,58.2L17.4,58.2z"/>
<path id="path518" class="st24" d="M19.5,58.6l0.1-0.1c0.1,0,0.1,0.1,0.2,0.1s0.1-0.1,0.1-0.1l0.5-1.2c0.1-0.2,0.1-0.2-0.1-0.4h-0.1
	l0.1-0.1l1,0.4l-0.1,0.1l-0.1-0.1c-0.1,0-0.1,0-0.2,0.1l-0.5,1.3c0,0.1-0.1,0.1,0.1,0.2c0.1,0,0.1,0,0.1,0.1c0.3,0.1,0.7,0,0.8-0.3
	l0.1,0.1l-0.4,0.7L19.5,58.6L19.5,58.6z"/>
<path id="path520" class="st24" d="M21.4,59.4l0.1-0.1l0.1,0.1c0.1,0,0.1,0,0.2-0.1l0.6-1.3c0-0.1,0-0.1,0.1-0.1v-0.1
	c-0.1,0-0.1,0-0.1-0.1l-0.1-0.1l0.1-0.1l1,0.4L23.3,58l-0.1-0.1c-0.1,0-0.1-0.1-0.1,0H23c0,0.1,0,0.1-0.1,0.1l-0.6,1.3
	c0,0.1-0.1,0.1,0,0.1l0,0l0.1,0.1h0.1l-0.1,0.1L21.4,59.4L21.4,59.4z"/>
<path id="path522" class="st24" d="M24.9,58.8L24.9,58.8l-0.3,0.8h-0.1c0.1-0.4,0.1-0.8-0.3-0.9c-0.1-0.1-0.3-0.1-0.4,0
	s-0.2,0.1-0.3,0.3c-0.1,0.1-0.1,0.2-0.1,0.3c-0.1,0.1-0.1,0.3-0.1,0.4v0.4c0.1,0.1,0.1,0.2,0.3,0.3c0.3,0.1,0.7,0,0.8-0.3l0.1,0.1
	c-0.2,0.4-0.7,0.5-1.1,0.3c-0.3-0.1-0.4-0.3-0.5-0.6s-0.1-0.6,0.1-0.8c0.1-0.3,0.4-0.5,0.6-0.6c0.3-0.1,0.6-0.1,0.8,0.1
	c0.1,0.1,0.3,0.1,0.4,0.4v0.1L24.9,58.8z"/>
<path id="path524" class="st24" d="M34.8,60.4L34.8,60.4c0-0.1,0-0.2,0.1-0.2s0-0.1,0-0.1l-0.5-1.2c-0.1-0.2-0.1-0.2-0.3-0.1H34
	l-0.1-0.1l1-0.4l0.1,0.1l-0.1,0.1c-0.1,0.1-0.1,0.1-0.1,0.2l0.5,1.3c0.1,0.1,0.1,0.1,0.2,0.1s0.1,0,0.1-0.1c0.4-0.1,0.4-0.4,0.4-0.8
	l0.1-0.1l0.3,0.7L34.8,60.4L34.8,60.4z"/>
<path id="path526" class="st24" d="M36.6,59.5L36.6,59.5v-0.2c0.1-0.1,0.1-0.1,0-0.2L36,57.9v-0.1h-0.1c-0.1,0-0.1,0-0.1,0.1l0,0
	l-0.1-0.1l1-0.4l0.1,0.1l0,0c-0.1,0-0.1,0-0.1,0.1v0.2l0.6,1.3c0,0.1,0,0.1,0.1,0.1l0,0c0.1,0,0.1,0,0.1-0.1h0.1l0.1,0.1
	C37.7,59.2,36.6,59.5,36.6,59.5z"/>
<path id="path528" class="st24" d="M37.7,59L37.7,59c0-0.1,0.1-0.1,0.2-0.2v-0.1l-0.5-1.3v-0.1h-0.1c-0.1,0-0.1,0-0.2,0.1L37,57.3
	l1.1-0.4c0.1-0.1,0.4-0.1,0.6-0.1s0.2,0.1,0.3,0.3c0.1,0.4-0.1,0.5-0.4,0.6l0,0c0.3-0.1,0.7-0.1,0.8,0.3c0.1,0.1,0.1,0.3,0,0.4
	c0,0,0,0-0.1,0c-0.1,0.1-0.3,0.2-0.4,0.3l-0.1,0.1c-0.1,0.1-0.1,0.1-0.3,0.1C38.5,58.9,37.7,59,37.7,59z"/>
<path id="path530" class="st24" d="M39.6,58.3L39.6,58.3c0.1-0.1,0.3-0.1,0.3-0.2V58l-0.2-1.4v-0.1h-0.3v-0.1l1.8-0.3l0.1,0.7h-0.1
	c-0.1-0.3-0.4-0.6-0.7-0.5h-0.1c-0.1,0-0.1,0-0.2,0.1c-0.1,0-0.1,0-0.1,0.1v0.1l0.1,0.5c0.2,0,0.4-0.1,0.4-0.3c0,0,0,0,0-0.1
	l0.1-0.1l0.1,1l0,0c-0.1-0.2-0.3-0.4-0.5-0.4l0.1,0.6c0,0.1,0,0.1,0.1,0.1h0.1c0.4-0.1,0.6-0.3,0.6-0.7h0.1l0.1,0.7L39.6,58.3
	L39.6,58.3z"/>
<path id="path532" class="st24" d="M42.8,56H43c0.1,0,0.4,0,0.5,0.1s0.2,0.3,0.2,0.4c0,0.4-0.3,0.5-0.6,0.5l0,0
	c0.3,0.1,0.4,0.1,0.4,0.4l0.1,0.1c0,0.1,0,0.1,0.1,0.2l0,0c0.1,0.1,0.1-0.1,0.1-0.3h0.1v0.1c-0.1,0.3-0.3,0.4-0.4,0.4
	c-0.1,0-0.3,0-0.4-0.1C43,57.7,43,57.7,43,57.5v-0.1c0-0.3-0.1-0.4-0.4-0.4h-0.2v0.7c0,0.1,0,0.1,0.1,0.1h0.2v0.1h-1.1v-0.1h0.1
	c0.1,0,0.1,0,0.1-0.1l-0.1-1.3v-0.2c-0.1-0.1-0.1,0-0.1,0h-0.1v-0.1C41.5,56.1,42.8,56,42.8,56z"/>
<path id="path534" class="st24" d="M44.1,58L44.1,58l0.2-0.1c0.1,0,0.1-0.1,0.1-0.2v-1.5c0-0.1,0-0.1-0.1-0.1h-0.2V56h1.1v0.1h-0.3
	v0.2l0.1,1.4c0,0.1,0,0.1,0.1,0.1h0.3v0.1L44.1,58z"/>
<path id="path536" class="st24" d="M46.1,55.8l0.2-0.1l1.1,1.6c0.1,0.1,0.1,0.1,0.4,0.1v0.1l-0.9,0.2l-0.1-0.1c0.1,0,0.1,0,0.2-0.1
	v-0.1l-0.2-0.3l-0.7,0.1v0.3c0.1,0.1,0.2,0.1,0.4,0.1v0.1l-0.8,0.1v-0.1c0.2-0.1,0.3-0.3,0.3-0.5C46,57.2,46.1,55.8,46.1,55.8z"/>
<path id="path538" class="st24" d="M28.1,60.6c-0.1-0.2-0.2-0.4-0.2-0.6c0-0.2,0.1-0.4,0.3-0.6c0.2-0.1,0.4-0.2,0.6-0.2
	s0.5,0.1,0.6,0.3s0.2,0.4,0.2,0.6c0,0.2-0.1,0.5-0.3,0.6c-0.2,0.1-0.4,0.2-0.6,0.2C28.4,61,28.2,60.8,28.1,60.6z"/>
<path id="path540" class="st24" d="M29.7,60.9L29.7,60.9l0.2-0.1v-0.1l-0.1-1.1c0-0.1,0-0.1-0.1-0.1h-0.2v-0.1l1.4-0.1l0.1,0.6h-0.1
	c-0.1-0.3-0.2-0.4-0.6-0.4h-0.1V60c0.2,0,0.3-0.1,0.4-0.3h0.1l0.1,0.8h-0.1v-0.1c-0.1-0.1-0.1-0.1-0.3-0.1l0,0v0.5
	c0,0.1,0,0.1,0.1,0.1h0.1V61L29.7,60.9L29.7,60.9z"/>
<path id="path542" class="st7" d="M11.1,5.1c0.1,0.1,0.1,0.3,0.2,0.4s0.2,0.1,0.4,0.1s0.1-0.4,0.1-0.5s0-0.1-0.1-0.2
	s-0.3-0.6-0.5-0.5S11,4.8,11.1,5.1z"/>
<path id="path544" class="st7" d="M16.6,4.4c0,0.1-0.1,0.4,0,0.4s0.1,0.2,0.3,0.3s0.3-0.2,0.4-0.4s0-0.1,0.1-0.2
	c0.1-0.2,0.1-0.5-0.2-0.7l0,0C16.9,3.8,16.6,4,16.6,4.4C16.6,4.3,16.6,4.4,16.6,4.4z"/>
<path id="path546" class="st7" d="M26,2.2c0.1,0,0.3,0,0.4-0.1s0.1-0.2,0.1-0.4s-0.1-0.2-0.1-0.3s-0.1-0.1-0.3-0.1s-0.1,0-0.2,0.1
	v0.1C25.9,1.4,26,2.2,26,2.2z"/>
<path id="path548" class="st7" d="M26,2.4v0.7h0.1c0.1,0,0.3,0,0.4-0.1s0.1-0.2,0.1-0.3s-0.1-0.2-0.1-0.4c-0.1-0.1-0.2-0.1-0.3-0.1
	H26V2.4z"/>
<path id="path550" class="st7" d="M31.2,2h0.2c0.3,0,0.4-0.1,0.4-0.4c0-0.2-0.1-0.4-0.3-0.4c0,0,0,0-0.1,0h-0.1
	c-0.1,0-0.1,0-0.1,0.1l0,0V2z"/>
<path id="path552" class="st7" d="M39.2,5.1c0.1,0,0.1,0,0.2-0.1s0.1-0.1,0-0.3c0-0.1,0-0.1-0.1-0.1l0,0c0-0.1-0.1,0-0.1,0
	c-0.1,0-0.1,0-0.1,0.1l0,0v0.1C39.1,4.8,39.2,5.1,39.2,5.1z"/>
<path id="path554" class="st7" d="M39.3,5.2l0.1,0.4v0.1h0.1c0.1,0,0.1,0,0.1-0.1V5.3c0-0.1-0.1-0.1-0.1-0.2S39.4,5.1,39.3,5.2z"/>
<path id="path556" class="st7" d="M40.5,4.8L40.5,4.8c0.2-0.1,0.3-0.1,0.2-0.4c-0.1-0.1-0.1-0.2-0.3-0.2c-0.1,0-0.1,0-0.1,0.1
	c-0.1,0,0,0.1,0,0.1L40.5,4.8z"/>
<path id="path558" class="st7" d="M41.6,4.6c0,0.1,0.1,0.3,0.1,0.4s0.1,0.1,0.3,0.1c0-0.1,0.1-0.3,0.1-0.4V4.5
	C42,4.2,42,3.9,41.7,3.9S41.6,4.4,41.6,4.6z"/>
<path id="path560" class="st7" d="M53.1,7.5C53.1,7.6,53.2,7.6,53.1,7.5c0.2,0.1,0.3,0.1,0.4-0.1c0.1-0.1,0-0.2,0-0.3c0,0,0,0-0.1,0
	h-0.1l-0.1,0.1C53.2,7.2,53.1,7.5,53.1,7.5z"/>
<path id="path562" class="st7" d="M9.5,55.7l0.1,0.1c0.2,0.1,0.4,0.1,0.5-0.1s0.1-0.4-0.1-0.5c-0.1,0-0.1,0-0.1-0.1l0,0l-0.1,0.1
	L9.5,55.7z"/>
<path id="path564" class="st7" d="M13.9,57H14c0.3,0,0.4-0.1,0.5-0.4s-0.1-0.4-0.4-0.4H14c-0.1,0-0.1,0-0.1,0.1V57z"/>
<path id="path566" class="st7" d="M18.5,57.2c0.1,0,0.3,0.1,0.4,0s0.2-0.1,0.3-0.3c0-0.1,0-0.2-0.1-0.3s-0.1-0.1-0.2-0.1h-0.2
	c0,0.1,0,0.1-0.1,0.1C18.6,56.6,18.5,57.2,18.5,57.2z"/>
<path id="path568" class="st7" d="M18.4,57.4L18.3,58v0.1l0.1,0.1h0.4c0.1-0.1,0.2-0.2,0.2-0.3s0-0.2-0.1-0.3s-0.2-0.1-0.3-0.1
	L18.4,57.4z"/>
<path id="path570" class="st7" d="M28.3,60.1c0,0.1,0,0.3,0.1,0.4c0.1,0.1,0.1,0.2,0.3,0.2s0.3-0.2,0.4-0.4v-0.2
	c0-0.2,0-0.6-0.4-0.6S28.3,59.8,28.3,60.1z"/>
<path id="path572" class="st7" d="M38.1,57.8c0.1-0.1,0.3-0.1,0.4-0.2s0.1-0.2,0.1-0.4c0-0.1,0-0.2-0.1-0.2h-0.3
	c-0.1,0-0.1,0-0.1,0.1C38.1,57.1,38.1,57.8,38.1,57.8z"/>
<path id="path574" class="st7" d="M38.2,57.9l0.2,0.6c0,0.1,0,0.1,0.1,0.1l0,0h0.1c0.2,0,0.3-0.1,0.4-0.2c0.1-0.1,0.1-0.2,0-0.3l0,0
	c0-0.1-0.1-0.2-0.2-0.3c-0.1,0-0.2,0-0.3,0.1C38.5,57.9,38.2,57.9,38.2,57.9z"/>
<path id="path576" class="st7" d="M42.6,56.8h0.2c0.3,0,0.4-0.1,0.4-0.4s-0.1-0.4-0.4-0.3h-0.1c-0.1,0-0.1,0-0.1,0.1
	C42.6,56.2,42.6,56.8,42.6,56.8z"/>
<polygon id="polygon578" class="st7" points="46.5,56.9 46.2,56.3 46,57.1 "/>
</svg>
